<svg id="stap_2" data-name="stap 2" xmlns="http://www.w3.org/2000/svg" width="668.819" height="254.056" viewBox="0 0 668.819 254.056">
  <g id="Group_202" data-name="Group 202">
    <path id="Path_522" data-name="Path 522" d="M236.522,630.524s-25.425-71.117,10.716-123.7c26.71-38.864,87.209-65.495,159.5-52.928,24.568,4.271,110.16-9.4,184.949-52.161,103.039-58.914,260.025-7.837,237.188,109.717-13.627,70.142,72.834,51.505,25.993,119.218Z" transform="translate(-209.451 -377.155)" fill="#7ecad0" opacity="0.2"/>
    <g id="Group_182" data-name="Group 182" transform="translate(537.051 79.072)">
      <g id="Group_181" data-name="Group 181" transform="translate(1.691 82.452)">
        <path id="Path_523" data-name="Path 523" d="M2502.493,1170.592l-.288-85.033s-.65-6.128-5.992-6.16c-5.7-.034-6.064,6.088-6.064,6.088a.648.648,0,0,0,.664.533.689.689,0,0,0,.716-.525s.281-4.72,4.675-4.694c4.119.025,4.619,4.749,4.619,4.749l-.505,85.028Z" transform="translate(-2490.149 -1079.4)" fill="#233862"/>
        <path id="Path_524" data-name="Path 524" d="M2531.178,1461.495l3.546.021-.293-3.71s.033-.515-.683-.548c-.666-.031-1.98-.134-2.107.268C2531.528,1457.879,2531.178,1461.495,2531.178,1461.495Z" transform="translate(-2521.741 -1370.319)" fill="#233862"/>
      </g>
      <path id="Path_525" data-name="Path 525" d="M2490.535,1059.809l-.249,1.215a7.792,7.792,0,0,0-7.455,6.375s-.4,2.678,1.539,2.118,1.643-1.931,4.385-2.664,4.528-1.3,4.955-3.286l.46-2.214Z" transform="translate(-2482.797 -981.863)" fill="#ac6f46"/>
      <path id="Path_526" data-name="Path 526" d="M2536.531,831.154s-1.627,6.247-3.033,11.959c-.565,2.3-1.1,4.514-1.469,6.2a14.25,14.25,0,0,0-.52,3.031c1.181,1.943-1.068,13.733-2.817,18.009-.154.379-.366.823-.621,1.316-2.438,4.71-8.908,13.944-8.908,13.944a8.031,8.031,0,0,1-2.992-.275,3.947,3.947,0,0,1-1.653-1.591c.579-.92,2.966-11.815,5.989-17.913,1.293-2.609,3.319-26.874,5.814-30.127C2528.4,832.989,2536.531,831.154,2536.531,831.154Z" transform="translate(-2507.222 -805.801)" fill="#db8591"/>
      <path id="Path_527" data-name="Path 527" d="M2574.554,905.58c1.181,1.943-1.068,13.733-2.816,18.009-.154.379-.366.823-.621,1.316-2.242-10.2,1.66-24.609,1.66-24.609a4.73,4.73,0,0,1,2.3,2.253A14.25,14.25,0,0,0,2574.554,905.58Z" transform="translate(-2550.268 -859.04)" fill="#bc6a75"/>
      <path id="Path_528" data-name="Path 528" d="M2587.228,1426.629s.558,9.224-1.184,9.342c-.232.016-8.831-.035-8.831-.035l-11.092-.066a3.792,3.792,0,0,1,3.415-3.247c3.211-.54,8.6-2.763,10.564-6.993C2582.172,1421.181,2587.228,1426.629,2587.228,1426.629Z" transform="translate(-2546.956 -1262.195)" fill="#0f2949"/>
      <path id="Path_529" data-name="Path 529" d="M2659.76,1427.06s.557,9.223-1.184,9.342c-.232.016-8.831-.036-8.831-.036l-11.093-.066a3.792,3.792,0,0,1,3.415-3.247c3.212-.54,8.6-2.763,10.565-6.993C2654.7,1421.611,2659.76,1427.06,2659.76,1427.06Z" transform="translate(-2602.803 -1262.527)" fill="#163560"/>
      <path id="Path_530" data-name="Path 530" d="M2597.549,1107.695a120.545,120.545,0,0,1,.551,13.435c-.315,6.317-.546,11.644-.546,11.644-4.175,1.392-11.808-.372-11.808-.372s-2.617-15.985-4.774-28.745c-.968-5.717-1.77-10.663-2.067-13-.96-7.547,1.353-47.633,1.353-47.633s11.315-7.158,15.951-3.405,7.479,7.409-.268,48.166C2595.353,1090.878,2596.989,1098.958,2597.549,1107.695Z" transform="translate(-2556.619 -965.48)" fill="#2e8087"/>
      <path id="Path_531" data-name="Path 531" d="M2597.549,1107.695a144.926,144.926,0,0,1,.491,14.661c-3.895-4.171-11.566-12.967-17.069-18.7-.968-5.717-1.77-10.663-2.067-13-.96-7.547,1.353-47.633,1.353-47.633s11.315-7.158,15.951-3.405,7.479,7.409-.268,48.166C2595.353,1090.878,2596.989,1098.958,2597.549,1107.695Z" transform="translate(-2556.619 -965.48)" fill="#233862"/>
      <path id="Path_532" data-name="Path 532" d="M2629.836,1043.613s.774,40.145,2.312,47.6,9.591,41.568,9.591,41.568,7.734.751,11.79-.958c0,0-.164-15.779-1.482-25.058-1.23-8.668-3.482-16.6-3.134-19.727,4.592-41.231,1.475-44.659-3.435-48.044S2629.836,1043.613,2629.836,1043.613Z" transform="translate(-2596.015 -965.192)" fill="#2e8087"/>
      <path id="Path_533" data-name="Path 533" d="M2693.857,1071.043a7.791,7.791,0,0,0,2.416,9.507s2.226,1.542,2.58-.443-.044-1.295.511-4.077-.117-5.667-1.712-6.931Z" transform="translate(-2644.759 -989.017)" fill="#ac6f46"/>
      <path id="Path_534" data-name="Path 534" d="M2599.685,779.243s3.067,4.723,2.424,9.109l4.514,11.062,8.338-12.583a29,29,0,0,1-5.927-11.264Z" transform="translate(-2572.799 -763)" fill="#ac6f46"/>
      <path id="Path_535" data-name="Path 535" d="M2580.979,748.152s11.267.555,11.512-6.21,3.318-11.247-5.109-11.892c-6.929-.53-9.25,2.347-9.882,4.585S2576.8,747.764,2580.979,748.152Z" transform="translate(-2555.474 -727.903)" fill="#ac6f46"/>
      <path id="Path_536" data-name="Path 536" d="M2593.2,881.147c-2.423.211-5.758.47-9.8.7q-1.213.069-2.507.134c-12.217.611-17.059-1.4-17.059-1.4s-.322-.264-.211-1.7c.574-7.382,2.156-9.554,1.975-10.959-.406-3.157-7.906-28.944-7.906-28.944s-.1-8.132,8.967-11.9a21.443,21.443,0,0,1,3.1-1.011,3.731,3.731,0,0,0,4.244,2.512,14.515,14.515,0,0,0,8.306-4.091c.227,0,.317.009.317.009a24.866,24.866,0,0,1,.741,2.688c.723,3.2,1.137,6.566,3.083,9.091a68.814,68.814,0,0,1,4.962,7.353,60.962,60.962,0,0,1,3.014,5.871C2602.327,867.255,2596.053,880.9,2593.2,881.147Z" transform="translate(-2540.463 -800.679)" fill="#db8591"/>
      <path id="Path_537" data-name="Path 537" d="M2678.948,942.8c-2.423.211-5.758.47-9.8.7-1.062-19.885,7.152-38.929,7.152-38.929a7.159,7.159,0,0,1,.863.724,12.586,12.586,0,0,1,3.014,5.871C2682.532,920.195,2680.426,934.826,2678.948,942.8Z" transform="translate(-2626.209 -862.332)" fill="#bc6a75"/>
      <path id="Path_538" data-name="Path 538" d="M2575.8,779.449s-2.246,8.692,1.47,9.939,13.606.324,13.666-10.347c0,0-5.205,3.063-7.683,2.97s-4.068-1.532-6.365-.429C2576.89,781.582,2576.053,781.521,2575.8,779.449Z" transform="translate(-2553.892 -765.675)" fill="#fff"/>
      <path id="Path_539" data-name="Path 539" d="M2657.464,824.537s7.877.224,12.007,5.664c3.165,4.169,6.4,26.456,6.384,29.809s-3.72,21.835-5.743,23.833a7.573,7.573,0,0,1-3.038-.018,6.145,6.145,0,0,1-2.92-1.44s1.123-20.595,1.135-22.527c.016-2.8-8.628-19.974-8.628-19.974S2652.174,831.709,2657.464,824.537Z" transform="translate(-2615.303 -800.706)" fill="#db8591"/>
      <path id="Path_540" data-name="Path 540" d="M2601.441,725.208a1.957,1.957,0,0,0-1.034-1.06,12.051,12.051,0,0,0-10.987.2c3.921-5.2,13.3-4.047,15.254.675,3.183,7.71-2.733,9.277-2.733,9.277s-5.883-2.514-2.449-5.6a5.563,5.563,0,0,0,1.877-2.73h0A2.743,2.743,0,0,0,2601.441,725.208Z" transform="translate(-2564.896 -720.929)" fill="#fff"/>
      <path id="Path_541" data-name="Path 541" d="M2586.062,795.554a2.537,2.537,0,0,0,2.042,1.132,2.39,2.39,0,0,0,1.908-1.132A11.122,11.122,0,0,0,2586.062,795.554Z" transform="translate(-2562.31 -778.246)" fill="#fff"/>
    </g>
    <g id="Group_183" data-name="Group 183" transform="translate(438.74 60.748)">
      <path id="Path_542" data-name="Path 542" d="M2148.527,1450.486a16.544,16.544,0,0,1,.433-4.05c.433-1.011,2.021-5.126,2.021-5.126h6.208a38.043,38.043,0,0,1,1.228,4.981c.073,1.227,0,4.194,0,4.194Z" transform="translate(-2127.102 -1257.29)" fill="#233862"/>
      <path id="Path_543" data-name="Path 543" d="M2286.693,1450.486a16.553,16.553,0,0,0-.433-4.05c-.433-1.011-2.021-5.126-2.021-5.126h-6.209a38.181,38.181,0,0,0-1.227,4.981c-.072,1.227,0,4.194,0,4.194Z" transform="translate(-2225.848 -1257.29)" fill="#233862"/>
      <path id="Path_544" data-name="Path 544" d="M2185.188,727.686s-.219,6.768-1.085,9.8l-6.856,4.783,25.809,3.862-6.155-8.5s-1.858-9.075-.884-12.432S2185.188,727.686,2185.188,727.686Z" transform="translate(-2149.216 -705.089)" fill="#ac6f46"/>
      <path id="Path_545" data-name="Path 545" d="M2211.608,743.567s2.041,4.913,5.885,4.8,4.719-4.455,4.719-4.455Z" transform="translate(-2175.674 -720.036)" fill="#825536"/>
      <path id="Path_546" data-name="Path 546" d="M2193,660.816s-1.242-6.2-2.107-8.074-1.588-10.251,8.013-10.685c0,0,3.682.433,5.7-.794,0,0,0,1.227-.505,1.66a6.383,6.383,0,0,1,5.92,2.094c2.6,2.888-1.732,12.995-1.516,15.377Z" transform="translate(-2159.363 -641.263)" fill="#2e8087"/>
      <path id="Path_547" data-name="Path 547" d="M2216.7,678.524v6.763a7.991,7.991,0,0,1-.7,3.215h0a10.277,10.277,0,0,1-3.462,4.178,6.663,6.663,0,0,1-3.75,1.364,7.261,7.261,0,0,1-3.563-1.344,10.053,10.053,0,0,1-4-4.929l-.01-.03-.025-.086a6.5,6.5,0,0,1-.312-1.962v-7.169a2.86,2.86,0,0,1,2.6-3.049H2214.1A2.86,2.86,0,0,1,2216.7,678.524Z" transform="translate(-2167.411 -667.606)" fill="#ac6f46"/>
      <path id="Path_548" data-name="Path 548" d="M2199.692,676.916s.014-4.307,3.426-4.969,11.046,2.1,12.128-1.041-14.756-3.086-15.554-1.083S2199.692,676.916,2199.692,676.916Z" transform="translate(-2166.226 -662.171)" fill="#2e8087"/>
      <path id="Path_549" data-name="Path 549" d="M2147.7,1023.565s1.086,33.17-.538,52.1.012,45.266.012,45.266a12.282,12.282,0,0,0,10.825,0s6.175-36.563,6.136-45.266c-.042-9.267,6.721-50.65,6.721-50.65Z" transform="translate(-2125.5 -935.631)" fill="#db8591"/>
      <path id="Path_550" data-name="Path 550" d="M2239.654,1120.737a12.278,12.278,0,0,1-10.825,0s-6.174-36.563-6.135-45.265c.018-3.914-1.178-13.558-2.566-23.391-1.9-13.451-4.156-27.259-4.156-27.259l24.056-1.5s-1.984,33.228-.36,52.152S2239.654,1120.737,2239.654,1120.737Z" transform="translate(-2179.033 -935.443)" fill="#db8591"/>
      <path id="Path_551" data-name="Path 551" d="M2186.752,843.167a120.384,120.384,0,0,1-19.611,1.986,94.832,94.832,0,0,1-12.044-.921c-3.9-.518-6.7-1.065-6.7-1.065s-2.079.182-.851-10.069c.933-7.8.641-14.844.433-22.091-.024-.806-.006-1.758.043-2.82.4-8.449,2.954-23.659,4.9-24.476a35.662,35.662,0,0,1,8.011-1.6c0,.1,2.969,4.44,6.493,4.927a12.214,12.214,0,0,0,6.3-4.786,68.689,68.689,0,0,1,9.883,1.906s.368,1.611,1.759,29.567C2185.924,824.8,2189.7,843.2,2186.752,843.167Z" transform="translate(-2126.047 -749.714)" fill="#4ea9b1"/>
      <path id="Path_552" data-name="Path 552" d="M2155.1,931.525c-3.9-.518-6.7-1.065-6.7-1.065s-2.079.182-.851-10.069c.933-7.8.641-14.844.433-22.091-.024-.806-.006-1.758.043-2.82.6.957,7.26,11.717,9.053,19.713C2158.38,921.025,2156.412,927.9,2155.1,931.525Z" transform="translate(-2126.047 -837.007)" fill="#2e8087"/>
      <path id="Path_553" data-name="Path 553" d="M2236.606,1133.171c.018-3.914-1.178-13.558-2.566-23.391a46.306,46.306,0,0,1,4.949-11.526C2243.428,1110.707,2236.606,1133.171,2236.606,1133.171Z" transform="translate(-2192.947 -993.141)" fill="#bc6a75"/>
      <path id="Path_554" data-name="Path 554" d="M2067.834,821.757c-.245.2.609,2.317,1.865,5.072,2.586,5.659,6.881,14.017,6.881,14.017a24.794,24.794,0,0,1-1.3,3.816,91,91,0,0,1-14.857-14.21c-4.18-5.209-5.037-8.2-5.037-8.2,16.087-32.747,27.409-33.954,27.409-33.954l-1.337,21.641S2068.579,821.137,2067.834,821.757Z" transform="translate(-2055.381 -754.482)" fill="#4ea9b1"/>
      <path id="Path_555" data-name="Path 555" d="M2141.844,1011.156s3.9-3.609,5.487-1.588,1.877,5.2.65,4.981-3.754-1.372-4.115-.794-1.978,1.682-2.469.8S2141.844,1011.156,2141.844,1011.156Z" transform="translate(-2121.503 -924.38)" fill="#ac6f46"/>
      <path id="Path_556" data-name="Path 556" d="M2093.443,969.816a24.828,24.828,0,0,1-1.3,3.816,91.018,91.018,0,0,1-14.858-14.21,18.538,18.538,0,0,0,9.281-3.623C2089.148,961.458,2093.443,969.816,2093.443,969.816Z" transform="translate(-2072.244 -883.452)" fill="#ac6f46"/>
      <path id="Path_557" data-name="Path 557" d="M2327.712,823.332s-.858,2.987-5.038,8.2a90.979,90.979,0,0,1-14.857,14.21,24.783,24.783,0,0,1-1.3-3.816s4.295-8.358,6.881-14.017c1.256-2.755,2.109-4.869,1.864-5.072-.578-.481-8.442-7.314-11.951-10.361l-1.668-1.451-.8-21.32S2311.625,790.586,2327.712,823.332Z" transform="translate(-2244.379 -755.558)" fill="#4ea9b1"/>
      <path id="Path_558" data-name="Path 558" d="M2306.152,1011.156s-3.9-3.609-5.487-1.588-1.876,5.2-.649,4.981,3.754-1.372,4.115-.794,1.978,1.682,2.469.8S2306.152,1011.156,2306.152,1011.156Z" transform="translate(-2243.162 -924.38)" fill="#ac6f46"/>
      <path id="Path_559" data-name="Path 559" d="M2325.514,969.816a24.8,24.8,0,0,0,1.3,3.816,91,91,0,0,0,14.857-14.21,18.537,18.537,0,0,1-9.28-3.623C2329.808,961.458,2325.514,969.816,2325.514,969.816Z" transform="translate(-2263.38 -883.452)" fill="#ac6f46"/>
      <path id="Path_560" data-name="Path 560" d="M2227.1,727.186v2.98a6.664,6.664,0,0,1-3.75,1.364,7.261,7.261,0,0,1-3.562-1.344v-3a3.035,3.035,0,0,1,3.026-3.026h1.261A3.035,3.035,0,0,1,2227.1,727.186Z" transform="translate(-2181.973 -705.093)" fill="#2e8087"/>
      <path id="Path_561" data-name="Path 561" d="M2217.048,729.271c-1.43,3.255-4.766,5.585-7.212,5.542-2.35-.043-6.367-2.691-7.564-6.274l-.01-.03-.026-.086s2.524,2.153,4.194,1.087h7.012A3.465,3.465,0,0,0,2217.048,729.271Z" transform="translate(-2168.458 -708.376)" fill="#2e8087"/>
      <path id="Path_562" data-name="Path 562" d="M2231.27,731.513h-1.513c-.346,0-.788-.567-.788-.914a1.667,1.667,0,0,1,.788-.347h1.513a1.265,1.265,0,0,1,.935.494A1.04,1.04,0,0,1,2231.27,731.513Z" transform="translate(-2189.042 -709.783)" fill="#ac6f46"/>
      <path id="Path_563" data-name="Path 563" d="M2225.661,730.359a2.946,2.946,0,0,0,2.383,1.424,2.794,2.794,0,0,0,2.228-1.424A12.06,12.06,0,0,0,2225.661,730.359Z" transform="translate(-2186.494 -709.686)" fill="#fff"/>
    </g>
    <g id="Group_184" data-name="Group 184" transform="translate(338.299 60.455)">
      <path id="Path_564" data-name="Path 564" d="M1711.851,1449.214a16.549,16.549,0,0,1,.433-4.051c.433-1.011,2.022-5.126,2.022-5.126h6.208a38.075,38.075,0,0,1,1.227,4.981c.072,1.227,0,4.195,0,4.195Z" transform="translate(-1690.426 -1256.018)" fill="#233862"/>
      <path id="Path_565" data-name="Path 565" d="M1850.017,1449.214a16.54,16.54,0,0,0-.433-4.051c-.433-1.011-2.021-5.126-2.021-5.126h-6.209a38.066,38.066,0,0,0-1.227,4.981c-.072,1.227,0,4.195,0,4.195Z" transform="translate(-1789.172 -1256.018)" fill="#233862"/>
      <path id="Path_566" data-name="Path 566" d="M1748.51,726.414s-.219,6.768-1.085,9.8L1740.569,741l25.809,3.862-6.155-8.5s-1.858-9.075-.884-12.432S1748.51,726.414,1748.51,726.414Z" transform="translate(-1712.539 -703.817)" fill="#ac6f46"/>
      <path id="Path_567" data-name="Path 567" d="M1774.932,742.3s2.041,4.913,5.885,4.8,4.719-4.455,4.719-4.455Z" transform="translate(-1738.998 -718.764)" fill="#825536"/>
      <path id="Path_568" data-name="Path 568" d="M1756.325,659.544s-1.241-6.2-2.108-8.075-1.588-10.251,8.014-10.685c0,0,3.682.433,5.7-.794,0,0,0,1.227-.505,1.66a6.383,6.383,0,0,1,5.92,2.094c2.6,2.888-1.732,12.995-1.516,15.377Z" transform="translate(-1722.685 -639.991)" fill="#2e8087"/>
      <path id="Path_569" data-name="Path 569" d="M1772.115,692.771c-2.785-.049-7.912-3.758-7.912-8.351v-7.168a2.86,2.86,0,0,1,2.6-3.049h10.627a2.86,2.86,0,0,1,2.6,3.049v6.762C1780.027,688.831,1775.309,692.827,1772.115,692.771Z" transform="translate(-1730.736 -666.334)" fill="#ac6f46"/>
      <path id="Path_570" data-name="Path 570" d="M1763.016,675.644s.015-4.307,3.426-4.969,11.046,2.1,12.129-1.041-14.757-3.086-15.554-1.083S1763.016,675.644,1763.016,675.644Z" transform="translate(-1729.549 -660.898)" fill="#2e8087"/>
      <path id="Path_571" data-name="Path 571" d="M1711.026,1022.294s1.086,33.17-.538,52.1.012,45.265.012,45.265a12.284,12.284,0,0,0,10.826,0s6.175-36.564,6.136-45.265c-.041-9.267,6.722-50.651,6.722-50.651Z" transform="translate(-1688.823 -934.36)" fill="#2e8087"/>
      <path id="Path_572" data-name="Path 572" d="M1802.977,1119.466a12.277,12.277,0,0,1-10.825,0s-6.175-36.563-6.135-45.265c.017-3.913-1.179-13.558-2.567-23.391-1.9-13.452-4.156-27.259-4.156-27.259l24.055-1.5s-1.984,33.227-.359,52.152S1802.977,1119.466,1802.977,1119.466Z" transform="translate(-1742.356 -934.171)" fill="#2e8087"/>
      <path id="Path_573" data-name="Path 573" d="M1750.075,841.895a120.375,120.375,0,0,1-19.611,1.986,94.822,94.822,0,0,1-12.044-.921c-3.9-.517-6.7-1.066-6.7-1.066s-2.079.182-.851-10.069c.934-7.8.641-14.844.433-22.091-.024-.806-.007-1.759.043-2.82.4-8.449,2.954-23.659,4.9-24.476a35.658,35.658,0,0,1,8.011-1.6c0,.1,2.969,4.44,6.493,4.927a12.214,12.214,0,0,0,6.3-4.786,68.685,68.685,0,0,1,9.882,1.906s.368,1.611,1.759,29.567C1749.248,823.526,1753.027,841.931,1750.075,841.895Z" transform="translate(-1689.37 -748.442)" fill="#fff"/>
      <path id="Path_574" data-name="Path 574" d="M1718.42,930.253c-3.9-.517-6.7-1.065-6.7-1.065s-2.079.182-.851-10.069c.934-7.8.641-14.844.433-22.091-.024-.806-.007-1.759.043-2.82.6.957,7.26,11.717,9.053,19.713C1721.7,919.753,1719.735,926.623,1718.42,930.253Z" transform="translate(-1689.37 -835.735)" fill="#dbeaeb"/>
      <path id="Path_575" data-name="Path 575" d="M1799.93,1131.9c.017-3.913-1.179-13.558-2.567-23.39a46.294,46.294,0,0,1,4.949-11.527C1806.752,1109.434,1799.93,1131.9,1799.93,1131.9Z" transform="translate(-1756.27 -991.868)" fill="#233862"/>
      <path id="Path_576" data-name="Path 576" d="M1631.157,820.484c-.245.2.609,2.317,1.865,5.072,2.586,5.659,6.881,14.017,6.881,14.017a24.778,24.778,0,0,1-1.3,3.816,91,91,0,0,1-14.857-14.21c-4.18-5.209-5.037-8.2-5.037-8.2,16.088-32.747,27.409-33.954,27.409-33.954l-1.338,21.641S1631.9,819.865,1631.157,820.484Z" transform="translate(-1618.704 -753.21)" fill="#fff"/>
      <path id="Path_577" data-name="Path 577" d="M1705.169,1009.884s3.9-3.61,5.486-1.588,1.877,5.2.65,4.981-3.754-1.372-4.115-.794-1.978,1.681-2.469.8S1705.169,1009.884,1705.169,1009.884Z" transform="translate(-1684.827 -923.108)" fill="#ac6f46"/>
      <path id="Path_578" data-name="Path 578" d="M1656.766,968.543a24.794,24.794,0,0,1-1.3,3.816,91,91,0,0,1-14.857-14.21,18.536,18.536,0,0,0,9.281-3.623C1652.472,960.185,1656.766,968.543,1656.766,968.543Z" transform="translate(-1635.568 -882.179)" fill="#ac6f46"/>
      <path id="Path_579" data-name="Path 579" d="M1891.036,822.06s-.858,2.987-5.038,8.2a90.985,90.985,0,0,1-14.857,14.21,24.782,24.782,0,0,1-1.3-3.816s4.295-8.358,6.881-14.017c1.256-2.755,2.109-4.869,1.865-5.072-.578-.481-8.442-7.314-11.951-10.361l-1.668-1.451-.8-21.32S1874.948,789.314,1891.036,822.06Z" transform="translate(-1807.702 -754.286)" fill="#fff"/>
      <path id="Path_580" data-name="Path 580" d="M1869.475,1009.884s-3.9-3.61-5.486-1.588-1.877,5.2-.65,4.981,3.754-1.372,4.115-.794,1.978,1.681,2.469.8S1869.475,1009.884,1869.475,1009.884Z" transform="translate(-1806.484 -923.108)" fill="#ac6f46"/>
      <path id="Path_581" data-name="Path 581" d="M1888.836,968.543a24.81,24.81,0,0,0,1.3,3.816A91,91,0,0,0,1905,958.149a18.537,18.537,0,0,1-9.281-3.623C1893.131,960.185,1888.836,968.543,1888.836,968.543Z" transform="translate(-1826.702 -882.179)" fill="#ac6f46"/>
      <path id="Path_582" data-name="Path 582" d="M1767.016,773.664a2.74,2.74,0,0,0-1.471,1.777s4.6,4.728,7.6,4.8Z" transform="translate(-1731.77 -742.918)" fill="#bc6a75"/>
      <path id="Path_583" data-name="Path 583" d="M1798.606,779.441l5.933-6.816a2.784,2.784,0,0,1,1.208,2.133S1801.157,779.622,1798.606,779.441Z" transform="translate(-1757.227 -742.118)" fill="#bc6a75"/>
      <path id="Path_584" data-name="Path 584" d="M1782.958,799.966s-4.528,39.093-2.951,43.858a32.586,32.586,0,0,0,2.762,6.056,1.606,1.606,0,0,0,2.778-.006c1.2-2.088,2.774-5.109,2.774-6.642,0-2.484-3.436-43.3-3.436-43.3Z" transform="translate(-1742.649 -763.144)" fill="#db8591"/>
      <path id="Path_585" data-name="Path 585" d="M1787.57,791.211a28.539,28.539,0,0,1,4.4-.105.461.461,0,0,1,.353.685c-.467.841-1.42,2.3-2.416,2.3C1788.51,794.089,1786.329,791.307,1787.57,791.211Z" transform="translate(-1748.446 -756.305)" fill="#bc6a75"/>
      <path id="Path_586" data-name="Path 586" d="M1788.955,734.234a3.047,3.047,0,0,0,2.383,1.132,2.835,2.835,0,0,0,2.228-1.132A15.125,15.125,0,0,0,1788.955,734.234Z" transform="translate(-1749.795 -712.414)" fill="#fff"/>
    </g>
    <g id="Group_187" data-name="Group 187" transform="translate(172.431 113.417)">
      <path id="Path_587" data-name="Path 587" d="M1031.513,979l-8.693,4.443-1.742-6.031a18.488,18.488,0,0,0,1.608-5.506,22.94,22.94,0,0,0,.18-4.965l7.083,3.627a13.438,13.438,0,0,0-.282,1.621,11.8,11.8,0,0,0,.123,3.79A5.247,5.247,0,0,0,1031.513,979Z" transform="translate(-992.671 -944.702)" fill="#ac6f46"/>
      <path id="Path_588" data-name="Path 588" d="M1069.143,942.152s11.574-10.325,12.281-11.744,3.99-14.1,3.99-14.1l2.758.337s-.526,15.209-1.688,18.171-14.8,15.56-14.8,15.56Z" transform="translate(-1029.68 -905.712)" fill="#ac6f46"/>
      <path id="Path_589" data-name="Path 589" d="M928.98,931.275s-8.023-10.389-11.928-13.613c0,0-5.341-13.169-5.775-14.037s-3.207.723-3.207.723,1.962,12.8,4.03,16.6,8.484,16.531,13.012,17S928.98,931.275,928.98,931.275Z" transform="translate(-905.656 -895.748)" fill="#ac6f46"/>
      <path id="Path_590" data-name="Path 590" d="M1081.989,1447.518a4.621,4.621,0,0,0,2.915,2.206,5.026,5.026,0,0,1,3.022,1.857,1.178,1.178,0,0,1-.947,1.877h-10.193a1.465,1.465,0,0,1-1.459-1.612c.076-.755.155-1.634.19-2.309a4.34,4.34,0,0,1,1.55-2.657Z" transform="translate(-1034.436 -1314.248)" fill="#2e8087"/>
      <path id="Path_591" data-name="Path 591" d="M1039.707,1246.422a9.707,9.707,0,0,1-6.583.573s-7.034-17.988-7.451-26.453c-.019-.34-.025-.664-.019-.972.142-7.962-7.209-28.693-5.227-32.941s18,1.909,18,1.909l.318,14.446Z" transform="translate(-991.908 -1112.707)" fill="#4ea9b1"/>
      <path id="Path_592" data-name="Path 592" d="M1038.75,1202.984l-13.077,17.557c-.019-.34-.025-.664-.019-.972.142-7.962-7.209-28.693-5.227-32.941s18,1.909,18,1.909Z" transform="translate(-991.908 -1112.707)" fill="#2e8087"/>
      <path id="Path_593" data-name="Path 593" d="M967.573,1447.518a4.619,4.619,0,0,0,2.915,2.206,5.025,5.025,0,0,1,3.022,1.857,1.178,1.178,0,0,1-.947,1.877H962.369a1.465,1.465,0,0,1-1.459-1.612c.076-.755.155-1.634.19-2.309a4.342,4.342,0,0,1,1.55-2.657Z" transform="translate(-946.336 -1314.248)" fill="#2e8087"/>
      <path id="Path_594" data-name="Path 594" d="M982.12,1184.705s-14.159,52.839-14.593,58.01c0,0-2.762,1.417-7.245-1.086,0,0-2.6-23.683,0-30.155s-.517-26.034,6.1-30.447S982.12,1184.705,982.12,1184.705Z" transform="translate(-944.967 -1108.531)" fill="#4ea9b1"/>
      <path id="Path_595" data-name="Path 595" d="M984.124,1008.758c.048-.723,4.4-3.664,4.4-3.664a12.257,12.257,0,0,0-2.581-9.454l-5.242,3.729a2.568,2.568,0,0,0-1.446.429,18.032,18.032,0,0,0-3.479-.07c.038,1.25-.271,2.46-2.464,2.747-2.918.38-5.527-1.611-6.848-2.964a11.078,11.078,0,0,0-3.985.569,5.96,5.96,0,0,0-2.218-.583l-4.291-3.857s-5.027,1.451-5.82,9.028c0,0,5.644,4.3,6.052,7.688h0l.155,1.286.547,4.557.963,7.991L955,1042.106a2.4,2.4,0,0,0-.038.416,2.346,2.346,0,0,0,1.8,2.278s.246.041.7.1c3.038.427,15.373,1.9,25.043-.728a4.7,4.7,0,0,0,3.427-4.914l-2.046-25.676h0S984.076,1009.481,984.124,1008.758Z" transform="translate(-938.057 -966.798)" fill="#db8591"/>
      <path id="Path_596" data-name="Path 596" d="M977.478,1107.689c-.191,5.552-.736,10.258-3.914,12.017-.454-.063-.7-.1-.7-.1a2.346,2.346,0,0,1-1.8-2.278,2.4,2.4,0,0,1,.039-.416l2.866-15.917-.963-7.991.071-.214S977.721,1100.579,977.478,1107.689Z" transform="translate(-954.163 -1041.601)" fill="#bc6a75"/>
      <path id="Path_597" data-name="Path 597" d="M1035.174,992.6c-4.028-.107-7.1-4.074-7.1-4.074l6.981.284A11.791,11.791,0,0,0,1035.174,992.6Z" transform="translate(-998.054 -961.321)" fill="#825536"/>
      <g id="Group_186" data-name="Group 186" transform="translate(21.858 6.669)">
        <path id="Path_598" data-name="Path 598" d="M1027.3,940.731s-8.034,2.121-10.806-4.267c-2.991-6.895.29-11.918,3.019-12.257,5.441-.676,8.6,1.4,9.557,3.592S1031.734,939.6,1027.3,940.731Z" transform="translate(-1010.086 -918.364)" fill="#ac6f46"/>
        <path id="Path_599" data-name="Path 599" d="M1053.6,977.436s.336.829,2.455.364c0,0,1.779-.39,1.578-1.327A5.85,5.85,0,0,0,1053.6,977.436Z" transform="translate(-1039.572 -958.666)" fill="#fff"/>
        <g id="Group_185" data-name="Group 185">
          <path id="Path_600" data-name="Path 600" d="M1000.449,919.577a14.9,14.9,0,0,1-.83-4.241s-2.1-2.673-.875-3.335,1.881.92,2.161.61.717-5.564,2.2-5.4,6.972,1.867,9.378-.208-3.431-10.182-13.324-7.051S991.287,914.084,1000.449,919.577Z" transform="translate(-992.605 -899.243)" fill="#2e8087"/>
          <path id="Path_601" data-name="Path 601" d="M999.248,913.417a3.481,3.481,0,0,1,.033-2.291,3.659,3.659,0,0,0,.54,1.9C1000.337,913.611,999.248,913.417,999.248,913.417Z" transform="translate(-997.574 -908.393)" fill="#2e8087"/>
          <path id="Path_602" data-name="Path 602" d="M994.748,917a1.974,1.974,0,0,0-1.8.8,1.574,1.574,0,0,1,1.734.035Z" transform="translate(-992.868 -912.909)" fill="#2e8087"/>
        </g>
      </g>
      <path id="Path_603" data-name="Path 603" d="M1138.12,890.915a6.273,6.273,0,0,0-.332-2.2c-.386-1.006-.159-3.618.334-3.471s.273,1.085.825.975,1.435-3.146,2.152-2.87,1.239,1.3,1.019,3.5a15.8,15.8,0,0,1-1.24,4.4Z" transform="translate(-1082.386 -880.321)" fill="#ac6f46"/>
      <path id="Path_604" data-name="Path 604" d="M903.134,878.1a7.063,7.063,0,0,1-.056-2.5c.235-1.189-.52-4.04-1.039-3.782s-.094,1.255-.726,1.239-2.2-3.21-2.938-2.766-1.124,1.676-.454,4.08a17.77,17.77,0,0,0,2.221,4.637Z" transform="translate(-897.574 -870.248)" fill="#ac6f46"/>
    </g>
    <path id="Rectangle_1039" data-name="Rectangle 1039" d="M.746,0H668.073a.746.746,0,0,1,.746.746v0a.746.746,0,0,1-.746.746H.746A.746.746,0,0,1,0,.746v0A.746.746,0,0,1,.746,0Z" transform="translate(0 252.564)" fill="#2e3552"/>
    <g id="Group_189" data-name="Group 189" transform="translate(114.578 145.578)">
      <path id="Path_605" data-name="Path 605" d="M663.351,1112.79s-6.785-2.714-12.2.136-10.265,28.124,6.323,31.336h0S673.04,1161.241,663.351,1112.79Z" transform="translate(-646.051 -1088.265)" fill="#233862"/>
      <path id="Path_606" data-name="Path 606" d="M793.816,1284.277l-.414-1.5s-1.989-.2-2.013-.161l.177,4.524a3.3,3.3,0,0,0,1.4-.659l.728-1.214A2.227,2.227,0,0,0,793.816,1284.277Z" transform="translate(-757.959 -1219.925)" fill="#ac6f46"/>
      <path id="Path_607" data-name="Path 607" d="M779.5,1121.462s2.432-.125,3.793,3.079c2.821,6.641,1.6,20.977,1.425,23.029,0,0,.969,4.076-.471,11.124l-1.8-.1s-2.969-26.64-2.616-29.391A39.607,39.607,0,0,0,779.5,1121.462Z" transform="translate(-748.808 -1095.84)" fill="#fff"/>
      <path id="Path_608" data-name="Path 608" d="M691.347,1461.843l.92,3.32h7.772S702.352,1460.918,691.347,1461.843Z" transform="translate(-680.928 -1357.829)" fill="#233862"/>
      <path id="Path_609" data-name="Path 609" d="M763.8,1461.843l.92,3.32h7.771S774.8,1460.918,763.8,1461.843Z" transform="translate(-736.715 -1357.829)" fill="#233862"/>
      <path id="Path_610" data-name="Path 610" d="M737.651,1086.639l-7.29,3.723-.959-4.822a20.9,20.9,0,0,0,.95-4.764,25.6,25.6,0,0,0,.049-4.247l5.941,3.04a10.979,10.979,0,0,0-.231,1.31,10.859,10.859,0,0,0-.046,2.305A4.9,4.9,0,0,0,737.651,1086.639Z" transform="translate(-710.23 -1061.244)" fill="#ac6f46"/>
      <path id="Path_611" data-name="Path 611" d="M741.515,1249.776l-14.743,1.163s-1.821,25.824,7.866,48.7l8.7-.583Z" transform="translate(-708.101 -1194.641)" fill="#233862"/>
      <path id="Path_612" data-name="Path 612" d="M686.538,1255.94s-2.9,14.819-.867,48.045h9.113l5.7-40.378c.183-1.181,2.508-2.824,2.508-2.824l.09-4.554Z" transform="translate(-676.002 -1199.388)" fill="#2e8087"/>
      <path id="Path_613" data-name="Path 613" d="M687.081,1128.507l.847,6.014-2.337,12.02a1.807,1.807,0,0,0,1.652,2.148c4.438.3,15.166.748,22.448-1.314a2.112,2.112,0,0,0,1.536-2.2l-1.281-16.079-.451-5.657-.463-5.812a17.006,17.006,0,0,0-6.077-1.918c.058.895-.242,1.714-2.083,1.913a6.741,6.741,0,0,1-4.987-1.65,2,2,0,0,0-.244-.263c-1.315.124-2.83.354-4.13.614-.2.041-4.84,9.251-4.84,9.251Z" transform="translate(-676.47 -1091.412)" fill="#db8591"/>
      <path id="Path_614" data-name="Path 614" d="M685.7,1147.3s20.631-10.559,10.5-27.8c-.486-.826-1.3-2.337-2.32-2.8a10.026,10.026,0,0,0-1.909.319c1.052.292,2.57,2.76,3.374,5,1.5,4.188,5.225,12.116-9.374,22.559Z" transform="translate(-676.583 -1092.171)" fill="#2e8087"/>
      <path id="Path_615" data-name="Path 615" d="M714.56,1183.359c.229-.017,2.145.056,2.145.056s.953-3.589,3.6-3.589c0,0,1.237-.121.857.88a4.568,4.568,0,0,0-.824,1.729,3.513,3.513,0,0,1-2.193,2.6l-1.143.309S713.959,1183.4,714.56,1183.359Z" transform="translate(-698.742 -1140.777)" fill="#ac6f46"/>
      <path id="Path_616" data-name="Path 616" d="M739.288,1097.946c-2.23.283-5.674-2.889-5.758-2.954,0,0,4.126.033,5.758.1A16.993,16.993,0,0,0,739.288,1097.946Z" transform="translate(-713.409 -1075.459)" fill="#825536"/>
      <path id="Path_617" data-name="Path 617" d="M733.977,1042.782s-10.147,1.237-10.363-5.912,4.013-11.779,6.836-11.726c5.629.105,6.558,2.38,7.21,4.749S738.648,1042.278,733.977,1042.782Z" transform="translate(-705.767 -1021.676)" fill="#ac6f46"/>
      <path id="Path_618" data-name="Path 618" d="M759.94,1083.086s.185.747,2.048.61c0,0,1.564-.115,1.506-.938A5.035,5.035,0,0,0,759.94,1083.086Z" transform="translate(-733.744 -1065.903)" fill="#fff"/>
      <g id="Group_188" data-name="Group 188" transform="translate(12.489)">
        <path id="Path_619" data-name="Path 619" d="M707.912,1029.6a13.7,13.7,0,0,1-.755-3.974s-2.029-2.587-.847-3.227,1.82.89,2.091.59.694-5.384,2.129-5.223,7.934,2.011,10.263,0-4.508-10.057-14.081-7.027S699.046,1024.289,707.912,1029.6Z" transform="translate(-700.349 -1010.072)" fill="#2e8087"/>
        <path id="Path_620" data-name="Path 620" d="M706.867,1023.729a3.368,3.368,0,0,1,.032-2.217,3.539,3.539,0,0,0,.523,1.839C707.922,1023.917,706.867,1023.729,706.867,1023.729Z" transform="translate(-705.227 -1018.881)" fill="#2e8087"/>
        <path id="Path_621" data-name="Path 621" d="M702.512,1027.195a1.91,1.91,0,0,0-1.743.777,1.523,1.523,0,0,1,1.677.034Z" transform="translate(-700.672 -1023.251)" fill="#2e8087"/>
      </g>
      <path id="Path_622" data-name="Path 622" d="M674.759,1118.378s-1.735-.1-4.84,5.082c-1.659,2.768-8.733,15.913-5.091,17.341s10.974-.01,12.852-2l-1.063-3.058s-5.082.231-5.052-.043a21.828,21.828,0,0,1,2.59-4.917C679.119,1123.788,674.759,1118.378,674.759,1118.378Z" transform="translate(-659.718 -1093.466)" fill="#fff"/>
      <path id="Path_623" data-name="Path 623" d="M731.245,1112.833s-3.57-1.608-4.824-3.344c0,0-1.294.75-1.415,1.672S729.375,1113.689,731.245,1112.833Z" transform="translate(-706.844 -1086.622)" fill="#fff"/>
      <path id="Path_624" data-name="Path 624" d="M753.814,1111.115s-.249,2.506-1.673,2.97c0,0,2.6.186,3.473-1.684C755.614,1112.4,754.715,1111.09,753.814,1111.115Z" transform="translate(-727.739 -1087.873)" fill="#fff"/>
      <path id="Path_625" data-name="Path 625" d="M757.529,1164.717a.45.45,0,1,1-.442-.537A.5.5,0,0,1,757.529,1164.717Z" transform="translate(-731.208 -1128.733)" fill="#bc6a75"/>
      <path id="Path_626" data-name="Path 626" d="M757.529,1195.983a.45.45,0,1,1-.442-.537A.5.5,0,0,1,757.529,1195.983Z" transform="translate(-731.208 -1152.808)" fill="#bc6a75"/>
      <path id="Path_627" data-name="Path 627" d="M757.529,1229.716a.45.45,0,1,1-.442-.537A.5.5,0,0,1,757.529,1229.716Z" transform="translate(-731.208 -1178.782)" fill="#bc6a75"/>
      <path id="Path_628" data-name="Path 628" d="M793.983,1278.322l.475-1.36-2.315-.137.042,1.4Z" transform="translate(-758.541 -1215.469)" fill="#fff"/>
      <path id="Path_629" data-name="Path 629" d="M723.846,1184.764a11.288,11.288,0,0,0,.29-2.133c-.081-.4.708-.1.707.74a.931.931,0,0,1-.223.516l-.413,1.658Z" transform="translate(-705.952 -1142.803)" fill="#ac6f46"/>
      <path id="Path_630" data-name="Path 630" d="M716.91,1192.5l-2.072.452.378,2.515h1.538l-.88,1.25.394.166,2.15-2.083A7.611,7.611,0,0,1,716.91,1192.5Z" transform="translate(-699.016 -1150.539)" fill="#7a003c"/>
    </g>
    <path id="Path_631" data-name="Path 631" d="M323.746,1450.7a5.025,5.025,0,0,1-1.509-4.688c.629-2.868,6-2.614,13.958-1.8s28.315,1.068,35.534-.441,9.733.881,10.488,2.892-1.006,4.036-1.006,4.036Z" transform="translate(-282.05 -1198.07)" fill="#db8591"/>
    <g id="Group_194" data-name="Group 194" transform="translate(48.108 207.233)">
      <path id="Path_632" data-name="Path 632" d="M367.213,1332.062s.323-1.629-.18-1.754-.6,1.037-.6,1.037-1.634-2.345-2.7-1.047,2.088,3.057,2.088,3.057Z" transform="translate(-362.028 -1317.996)" fill="#ac6f46"/>
      <g id="Group_193" data-name="Group 193">
        <path id="Path_633" data-name="Path 633" d="M423.448,1299.958c-2.785-.04-7.912-3.086-7.912-6.859v-5.887c0-3.751,4-6.4,8.244-6.4,6.228,0,7.581,5.025,7.581,6.4v5.553C431.361,1296.722,426.643,1300,423.448,1299.958Z" transform="translate(-402.087 -1280.192)" fill="#ac6f46"/>
        <path id="Rectangle_1040" data-name="Rectangle 1040" d="M8.383,0h0a8.383,8.383,0,0,1,8.383,8.383v3.9a8.383,8.383,0,0,1-8.383,8.383h0A8.383,8.383,0,0,1,0,12.282v-3.9A8.383,8.383,0,0,1,8.383,0Z" transform="translate(12.957 18.242)" fill="#ac6f46"/>
        <path id="Path_634" data-name="Path 634" d="M387.553,1343.873a5,5,0,0,1-3.17.252c-2.048-.736-4.393-.955-4.863-1.366-.8-.7-4.576-3.482-4.576-3.482l-1.393,1.293s2.487,5.869,3.879,6.764,4.2,4.419,7.958,4.377C387.342,1351.689,387.553,1343.873,387.553,1343.873Z" transform="translate(-369.759 -1325.211)" fill="#ac6f46"/>
        <path id="Path_635" data-name="Path 635" d="M437.453,1339.986a3.6,3.6,0,0,0,2.641,1.509,3.76,3.76,0,0,0,2.6-1.509A5.1,5.1,0,0,0,437.453,1339.986Z" transform="translate(-418.963 -1325.212)" fill="#fff"/>
        <path id="Path_636" data-name="Path 636" d="M438.689,1279.685s-1.006,1.949,0,3.207,3.709.5,3.709.5-1.069-.44-1.069-.88c0,0,1.635.817,2.515-.063s.3-3.583-.545-4.086S439.129,1278.078,438.689,1279.685Z" transform="translate(-419.57 -1278.124)" fill="#2e8087"/>
        <g id="Group_190" data-name="Group 190" transform="translate(24.999 11.911)">
          <path id="Path_637" data-name="Path 637" d="M465.749,1343.873a5,5,0,0,0,3.171.252c2.048-.736,4.393-.955,4.863-1.366.8-.7,4.576-3.482,4.576-3.482l1.393,1.293s-2.487,5.869-3.879,6.764-4.2,4.419-7.958,4.377C465.96,1351.689,465.749,1343.873,465.749,1343.873Z" transform="translate(-465.749 -1337.122)" fill="#ac6f46"/>
          <path id="Path_638" data-name="Path 638" d="M520.229,1332.062s-.323-1.629.181-1.754.6,1.037.6,1.037,1.635-2.345,2.7-1.047-2.088,3.057-2.088,3.057Z" transform="translate(-507.62 -1329.906)" fill="#ac6f46"/>
        </g>
        <g id="Group_191" data-name="Group 191" transform="translate(0 30.607)">
          <path id="Path_639" data-name="Path 639" d="M376.761,1411.193s-3.854,2.848-5.961,4.024a15.866,15.866,0,0,0-4.233,3.416c0,.252.447,2.347,1.607,2.515s13.117-.8,14.683-1.869C382.856,1419.279,379.736,1411.256,376.761,1411.193Z" transform="translate(-364.381 -1411.193)" fill="#ac6f46"/>
          <path id="Path_640" data-name="Path 640" d="M362.973,1424.347a5.138,5.138,0,0,1,3.614.906,1.264,1.264,0,0,0,1.446.063,4.44,4.44,0,0,1,2.509,5.66s-4.389.712-5.136.272S362.973,1424.347,362.973,1424.347Z" transform="translate(-361.614 -1421.293)" fill="#fff"/>
          <path id="Path_641" data-name="Path 641" d="M360.857,1431.043a3.623,3.623,0,0,1-3.157-2.1c-.88-2.074-.943-4.212.44-4.715a2.47,2.47,0,0,1,3.081,1.006C361.845,1426.181,364.014,1430.435,360.857,1431.043Z" transform="translate(-357.065 -1421.088)" fill="#afcdfb"/>
        </g>
        <g id="Group_192" data-name="Group 192" transform="translate(23.729 30.607)">
          <path id="Path_642" data-name="Path 642" d="M466.326,1411.193s3.854,2.848,5.961,4.024a15.866,15.866,0,0,1,4.233,3.416c0,.252-.447,2.347-1.606,2.515s-13.117-.8-14.683-1.869C460.231,1419.279,463.35,1411.256,466.326,1411.193Z" transform="translate(-460.231 -1411.193)" fill="#ac6f46"/>
          <path id="Path_643" data-name="Path 643" d="M508.539,1424.347a5.137,5.137,0,0,0-3.614.906,1.265,1.265,0,0,1-1.446.063,4.44,4.44,0,0,0-2.509,5.66s4.389.712,5.136.272S508.539,1424.347,508.539,1424.347Z" transform="translate(-491.423 -1421.293)" fill="#fff"/>
          <path id="Path_644" data-name="Path 644" d="M518.471,1431.043a3.623,3.623,0,0,0,3.157-2.1c.88-2.074.943-4.212-.44-4.715a2.47,2.47,0,0,0-3.08,1.006C517.483,1426.181,515.313,1430.435,518.471,1431.043Z" transform="translate(-503.788 -1421.088)" fill="#afcdfb"/>
        </g>
        <path id="Path_645" data-name="Path 645" d="M408.2,1399.622s6.706,3.751,16.766.629a9.868,9.868,0,0,1,1.147,1.31,2.722,2.722,0,0,1,.521,1.854s-5.952,2.944-6.393,7.407c0,0-5,1.825-7.2-.162,0,0-3.223-7.292-6.388-7.669A7.418,7.418,0,0,1,408.2,1399.622Z" transform="translate(-395.247 -1371.676)" fill="#fff"/>
      </g>
    </g>
    <g id="Group_201" data-name="Group 201" transform="translate(256.448 79.521)">
      <path id="Path_646" data-name="Path 646" d="M1329.658,1386.165l-1.349,5.673-1.79,7.524h-5.592l-.333-7.208-.258-5.559Z" transform="translate(-1307.113 -1233.603)" fill="#ac6f46"/>
      <path id="Path_647" data-name="Path 647" d="M1411.289,841.1s4.425-4.735,7.3-1.022,6.066,6.219,10.481,9.075-3.9,25.237-9.432,24.777S1391.544,855.824,1411.289,841.1Z" transform="translate(-1371.023 -812.027)" fill="#7a003c"/>
      <path id="Path_648" data-name="Path 648" d="M1342.115,831.568c1.1-.826,11.275-4.317,21.19-.883s-7.68,13-7.68,13l-5.7.245Z" transform="translate(-1323.882 -804.747)" fill="#bc6a75"/>
      <path id="Path_649" data-name="Path 649" d="M1313.29,1451.806a14.9,14.9,0,0,1,.39-3.648c.39-.911,1.821-4.617,1.821-4.617h5.593a34.316,34.316,0,0,1,1.105,4.487c.065,1.105,0,3.778,0,3.778Z" transform="translate(-1301.687 -1277.781)" fill="#233862"/>
      <path id="Path_650" data-name="Path 650" d="M1437.747,1451.806a14.9,14.9,0,0,0-.39-3.648c-.39-.911-1.821-4.617-1.821-4.617h-5.593a34.245,34.245,0,0,0-1.105,4.487c-.065,1.105,0,3.778,0,3.778Z" transform="translate(-1390.636 -1277.781)" fill="#233862"/>
      <path id="Path_651" data-name="Path 651" d="M1346.312,800.731s-.2,6.1-.978,8.828l-6.176,13.312,23.248-5.525-5.544-7.66s-1.674-8.174-.8-11.2S1346.312,800.731,1346.312,800.731Z" transform="translate(-1321.606 -780.376)" fill="#ac6f46"/>
      <path id="Path_652" data-name="Path 652" d="M1370.112,815.036s1.838,4.425,5.3,4.328,4.251-4.013,4.251-4.013Z" transform="translate(-1345.439 -793.84)" fill="#825536"/>
      <path id="Path_653" data-name="Path 653" d="M1353.352,740.5a55.561,55.561,0,0,0-1.9-7.273c-.78-1.691-1.431-9.234,7.218-9.624,0,0,3.316.39,5.137-.716,0,0,0,1.106-.455,1.5a5.749,5.749,0,0,1,5.332,1.886c2.341,2.6-1.56,11.705-1.365,13.851Z" transform="translate(-1330.746 -722.883)" fill="#2e8087"/>
      <path id="Path_654" data-name="Path 654" d="M1367.574,770.426c-2.509-.044-7.127-3.385-7.127-7.523v-6.456a2.576,2.576,0,0,1,2.341-2.747h9.573a2.576,2.576,0,0,1,2.341,2.747v6.091C1374.7,766.876,1370.452,770.477,1367.574,770.426Z" transform="translate(-1337.997 -746.612)" fill="#ac6f46"/>
      <path id="Path_655" data-name="Path 655" d="M1359.378,755s.013-3.879,3.086-4.476,9.95,1.891,10.925-.938-13.292-2.78-14.011-.975S1359.378,755,1359.378,755Z" transform="translate(-1336.929 -741.716)" fill="#2e8087"/>
      <path id="Path_656" data-name="Path 656" d="M1327.16,1068.554c1.539-4.791,1.509,19.83-4.67,47.524-.943,4.226-3.055,14.419-4.57,24.283h-12.658c-.175-7.965-1.029-19.085-1.566-27.413a181.287,181.287,0,0,1,2.606-45.7Z" transform="translate(-1293.997 -988.043)" fill="#2e8087"/>
      <path id="Path_657" data-name="Path 657" d="M1397.527,1112.775c-.14,7.982-1.761,18.585-1.907,26.358h-12.842c-.863-5.642-2.233-11.451-3.217-16.139a44.448,44.448,0,0,1-1.2-7.824c.015-3.391-2.13-13.166-3.407-21.786,0-.013,0-.024-.006-.035-.05-.331-.1-.662-.143-.99a143.1,143.1,0,0,1-1.108-23.977l21.669-1.354S1397.9,1091.487,1397.527,1112.775Z" transform="translate(-1348.12 -987.871)" fill="#2e8087"/>
      <path id="Path_658" data-name="Path 658" d="M1308.876,1110.9s4.875,5.907,18.12,5.054,19.564-3.158,19.564-3.158Z" transform="translate(-1298.288 -1021.655)" fill="#233862"/>
      <path id="Path_659" data-name="Path 659" d="M1343.583,911.352c-4.327.589-33.76,2.117-37.684-1.9s6.406-58.784,6.406-58.784,1.17-.338,3.144-.71c1.006-.19,2.22-.386,3.595-.552.017.427.357,6.884,5.718,9.551,0,0,6.438-2.579,5.808-9.446-.007-.081-.017-.158-.028-.236.859.092,1.729.212,2.6.362a36.782,36.782,0,0,1,5.327,1.319S1347.909,910.766,1343.583,911.352Z" transform="translate(-1295.311 -820.206)" fill="#db8591"/>
      <path id="Path_660" data-name="Path 660" d="M1273.681,887.833c-.174.228,1,1.913,2.655,4.08,3.406,4.452,8.853,10.93,8.853,10.93a22.3,22.3,0,0,1-.38,3.613,81.941,81.941,0,0,1-15.9-9.5c-4.715-3.736-6.067-6.187-6.067-6.187,7.561-31.983,17.261-35.313,17.261-35.313l3.165,19.273S1274.211,887.139,1273.681,887.833Z" transform="translate(-1262.845 -824.963)" fill="#db8591"/>
      <path id="Path_661" data-name="Path 661" d="M1368.088,849.641l-1.95,5.931-2.6,3.817-3.731,2.024-3.512-2.024-5.9-9.428c1.006-.19,2.22-.386,3.595-.552a6.129,6.129,0,0,0,.731,2.41,5.8,5.8,0,0,0,10.253.023,4.676,4.676,0,0,0,.541-2.329,2.283,2.283,0,0,0-.028-.236C1366.344,849.371,1367.214,849.491,1368.088,849.641Z" transform="translate(-1330.256 -820.206)" fill="#fff"/>
      <path id="Path_662" data-name="Path 662" d="M1305.5,1024.885c0,.062,0,.123-.007.184-.016.4-.041.784-.07,1.128a6.174,6.174,0,0,1-.622.732,6.557,6.557,0,0,1-1.095.887c-.189-.09-.379-.184-.565-.276a78.453,78.453,0,0,1-13.918-8.541,16.711,16.711,0,0,0,7.423-5.044C1300.054,1018.406,1305.5,1024.885,1305.5,1024.885Z" transform="translate(-1283.158 -947.004)" fill="#ac6f46"/>
      <path id="Path_663" data-name="Path 663" d="M1447.548,888.061s-1.3,2.476-5.948,6.3a81.965,81.965,0,0,1-15.712,9.8,22.319,22.319,0,0,1-.449-3.6s5.323-6.581,8.643-11.1c1.614-2.2,2.755-3.906,2.576-4.13-.421-.53-6.1-8-8.636-11.332l-1.2-1.586,3.208-18.949S1439.377,856.229,1447.548,888.061Z" transform="translate(-1388.041 -823.43)" fill="#db8591"/>
      <path id="Path_664" data-name="Path 664" d="M1442.441,1014.864a78.854,78.854,0,0,1-13.817,8.841l-.48.247a8.9,8.9,0,0,1-1.612-3.2c.107-.132.245-.307.414-.515,1.529-1.908,5.37-6.727,7.976-10.272A16.7,16.7,0,0,0,1442.441,1014.864Z" transform="translate(-1388.882 -943.931)" fill="#ac6f46"/>
      <path id="Path_665" data-name="Path 665" d="M1377.512,839.741a51.542,51.542,0,0,0-11.5.131.213.213,0,0,1,0-.022S1376.655,833.268,1377.512,839.741Z" transform="translate(-1342.283 -810.669)" fill="#ac6f46"/>
      <g id="Group_196" data-name="Group 196" transform="translate(23.867 37.429)">
        <g id="Group_195" data-name="Group 195" transform="translate(0.309)">
          <path id="Path_666" data-name="Path 666" d="M1368.334,895.869h-.218l-.161-10.258h.552Z" transform="translate(-1367.955 -885.611)" fill="#bc6a75"/>
        </g>
        <path id="Path_667" data-name="Path 667" d="M1367.059,928.681c-.2.3-.646,1.292-.349,1.4a1.259,1.259,0,0,0,.957-.029C1367.807,929.909,1367.435,928.114,1367.059,928.681Z" transform="translate(-1366.611 -918.69)" fill="#bc6a75"/>
      </g>
      <g id="Group_198" data-name="Group 198" transform="translate(33.941 37.429)">
        <g id="Group_197" data-name="Group 197" transform="translate(0.309)">
          <path id="Path_668" data-name="Path 668" d="M1412.132,895.869h-.218l-.161-10.258h.552Z" transform="translate(-1411.753 -885.611)" fill="#bc6a75"/>
        </g>
        <path id="Path_669" data-name="Path 669" d="M1410.857,928.681c-.2.3-.646,1.292-.349,1.4a1.26,1.26,0,0,0,.958-.029C1411.6,929.909,1411.233,928.114,1410.857,928.681Z" transform="translate(-1410.409 -918.69)" fill="#bc6a75"/>
      </g>
      <path id="Path_670" data-name="Path 670" d="M1343.646,851.239l-9.047-8.718s-2.037-1.446,1.182-3.607S1343.646,851.239,1343.646,851.239Z" transform="translate(-1317.605 -812.056)" fill="#bc6a75"/>
      <path id="Path_671" data-name="Path 671" d="M1407.544,851.239l9.047-8.718s2.037-1.446-1.182-3.607S1407.544,851.239,1407.544,851.239Z" transform="translate(-1374.261 -812.056)" fill="#bc6a75"/>
      <g id="Group_199" data-name="Group 199" transform="translate(15.557 73.763)">
        <path id="Path_672" data-name="Path 672" d="M1359.559,1051.439a5.588,5.588,0,0,1-4.367-1.306,5.459,5.459,0,0,1-.528-.544,8.639,8.639,0,0,1-1.678-3.47,11.682,11.682,0,0,1-.359-2.285l-.008-.256h-14.612l.009.272a8.181,8.181,0,0,1-.758,4.029,5.747,5.747,0,0,1-1.063,1.484,6.157,6.157,0,0,1-1.288.986,8.86,8.86,0,0,1-4.16,1.089l-.27-.009v6.174h29.365v-6.188Z" transform="translate(-1330.479 -1043.578)" fill="#bc6a75"/>
      </g>
      <path id="Path_673" data-name="Path 673" d="M1460.219,945.567s-8.145-10.688-1.7-13.8c2.559-1.235,6.162,13.431,4.231,14.811s-5.11,3.118-5.11,3.118Z" transform="translate(-1411.601 -883.665)" fill="#bc6a75"/>
      <path id="Path_674" data-name="Path 674" d="M1299.219,943.718s2.83-13.42.347-12.037-6.163,13.431-4.231,14.811,5.11,3.118,5.11,3.118Z" transform="translate(-1287.446 -883.578)" fill="#bc6a75"/>
      <g id="Group_200" data-name="Group 200" transform="translate(42.539 30.782)">
        <path id="Path_675" data-name="Path 675" d="M1452.724,887.8c-3.72-4.617-5.109-12.115-4.919-19.852a90.468,90.468,0,0,1,.991-11.236l3.051,2.376a21.076,21.076,0,0,0-1.886,8.876c-.123,5.17-.368,9.106,2.554,18.106Z" transform="translate(-1447.788 -856.712)" fill="#7a003c"/>
      </g>
      <path id="Path_676" data-name="Path 676" d="M1317.936,1371.329l-6.554,0c-.58.065-1.488-.784-1.488-2a24.137,24.137,0,0,0-.206-3.429c-.843-2.269.411-2.391,1.625-2.391h11.957c1.214,0-.646,3.753-.646,4.967l.43,1.591C1323.056,1371.279,1319.15,1371.329,1317.936,1371.329Z" transform="translate(-1298.702 -1216.156)" fill="#233862"/>
      <path id="Path_677" data-name="Path 677" d="M1329.172,1410.83l-1.79,7.524h-5.593l-.333-7.208A11.679,11.679,0,0,0,1329.172,1410.83Z" transform="translate(-1307.976 -1252.595)" fill="#fff"/>
      <path id="Path_678" data-name="Path 678" d="M1420.143,1386.165l1.348,5.673,1.79,7.524h5.592l.333-7.208.258-5.559Z" transform="translate(-1383.962 -1233.603)" fill="#ac6f46"/>
      <path id="Path_679" data-name="Path 679" d="M1415.3,1371.329l6.554,0c.58.065,1.488-.784,1.488-2a24.152,24.152,0,0,1,.206-3.429c.843-2.269-.411-2.391-1.625-2.391h-11.957c-1.214,0,.646,3.753.646,4.967l-.431,1.591C1410.183,1371.279,1414.088,1371.329,1415.3,1371.329Z" transform="translate(-1375.811 -1216.156)" fill="#233862"/>
      <path id="Path_680" data-name="Path 680" d="M1426,1410.83l1.79,7.524h5.592l.333-7.208A11.68,11.68,0,0,1,1426,1410.83Z" transform="translate(-1388.476 -1252.595)" fill="#fff"/>
      <path id="Path_681" data-name="Path 681" d="M1381.074,806.214a3.046,3.046,0,0,0,2.383,1.132,2.834,2.834,0,0,0,2.228-1.132A15.12,15.12,0,0,0,1381.074,806.214Z" transform="translate(-1353.88 -786.904)" fill="#fff"/>
    </g>
  </g>
</svg>
