<svg id="stap_3" data-name="stap 3" xmlns="http://www.w3.org/2000/svg" width="402.091" height="254.056" viewBox="0 0 402.091 254.056">
  <path id="Path_294" data-name="Path 294" d="M592.848,359.953l-341.488-.118S193.651,280.3,224.429,227.1s75.731-15.649,79.479-54.087c.128-1.3.026-2.588.026-3.846,0-.3,0-.594.02-.89,1.152-22.075,15.556-36.342,34.565-44.55q.921-.4,1.854-.776c30.313-12.285,71.3-9.757,89.445.805,30.872,17.971,30.679,39.6,94.429,32.466s75.908,52.53,59.313,82.928C560.013,282.281,648.854,275.2,592.848,359.953Z" transform="translate(-215.391 -114.738)" fill="#7ecad0" opacity="0.2"/>
  <g id="Group_110" data-name="Group 110" transform="translate(88.541 8.986)">
    <path id="Path_295" data-name="Path 295" d="M1829,767.933l-8.3-8.17-8.144-8.017a1.474,1.474,0,0,1-.344-1.423c.419-1.495,2.953-2.979,4.432-4.226l.149-.127a4.648,4.648,0,0,1,6.532.554l9.956,11.8h0l2.952,3.5a4.648,4.648,0,0,1-.554,6.532l-.149.127A4.649,4.649,0,0,1,1829,767.933Z" transform="translate(-1672.831 -663.944)" fill="#c98659"/>
    <path id="Path_296" data-name="Path 296" d="M1282.978,392.1a3.793,3.793,0,0,1-3.383,2.967,35.256,35.256,0,0,1-17.627-2.092c-8.114.038-13.858-2.916-15.6-1.387-.064.056-.046.177.045.349,1.592,3.086,26.21,23.613,26.569,25.891.379,2.4-45.8,13.719-45.8,13.719s-6.822-4.253-14.461-9.834c-3.874-2.827-7.956-6-11.465-9.126-3.539-3.15-6.5-6.267-8.08-8.952l-.008-.018a10.917,10.917,0,0,1-.614-1.178c-.028-.06-.053-.115-.073-.166a22.58,22.58,0,0,0-5.735-7.631,51.57,51.57,0,0,0-14.333-8.732l33.9-18.092s31.132,3.658,36.112,6.68c7.259,4.408,22.458,7.639,25.383,9.347,2.172,1.266,13.611,5.374,14.446,5.741A2.878,2.878,0,0,1,1282.978,392.1Z" transform="translate(-1124.389 -340.688)" fill="#c98659"/>
    <path id="Path_297" data-name="Path 297" d="M907.049,199.647s-.008.069-.028.2v0a84.79,84.79,0,0,1-2.413,11.267v0c-.059.2-.118.405-.179.608v0l-.083.274v0c-1.959,6.48-5.143,13.661-10.058,16.556h0q-.422.248-.862.455a9.092,9.092,0,0,1-2.138.695,8.747,8.747,0,0,1-1.7.163s-4.311-.518-10.761-1.3l-1.079-.134c-11.661-1.423-29.482-3.628-41.911-5.289,0-.3,0-.595.02-.89,1.151-22.075,15.556-36.342,34.565-44.55,10.1,6.037,19.554,11.7,26.331,15.767a.007.007,0,0,1,.006,0,.1.1,0,0,1,.016.01c.433.26.856.514,1.266.758l.025.016C903.612,197.585,907.049,199.647,907.049,199.647Z" transform="translate(-835.836 -177.706)" fill="#7a003c"/>
    <path id="Path_298" data-name="Path 298" d="M1284.347,495.878a.4.4,0,0,1,.04.089c3.186,20.144,14.883,16.821,14.883,16.821l-.44,16.558c-3.874-2.827-7.956-6-11.465-9.126-3.539-3.15-6.5-6.267-8.08-8.952l-.008-.018c-.276-.5-.483-.9-.614-1.178-.028-.06-.053-.115-.073-.166a22.577,22.577,0,0,0-5.735-7.631c1.245-2.127,2.7-4.544,4.137-6.911A4.145,4.145,0,0,1,1284.347,495.878Z" transform="translate(-1210.49 -448.321)" fill="#b57b53"/>
    <path id="Path_299" data-name="Path 299" d="M1145.806,288.057s-10.939,9.462-15.445,16.11l3.265,5.662-5.554-.523s-2.829,10.265-1.293,13.732l15.146,1.426,17.458-27.936Z" transform="translate(-1084.869 -272.309)" fill="#4b0025"/>
    <path id="Path_300" data-name="Path 300" d="M1136.3,303.718c-.448-4.117,3.544-12.523,3.544-12.523l13.429,2.681-10.339-10.9c2.334-4.831,7.932-12.2,11.4-16.569,1.725-2.174,2.92-3.6,2.92-3.6,9.945,7.559,19.2,15.092,19.2,15.092-4.059,1.573-7.858,5.843-11.019,10.563a98.221,98.221,0,0,0-8.746,16.924C1148.627,304.621,1136.3,303.718,1136.3,303.718Z" transform="translate(-1093.391 -250.661)" fill="#7a003c"/>
    <path id="Path_301" data-name="Path 301" d="M1136.3,325.368c-.448-4.117,3.544-12.523,3.544-12.523l13.429,2.681-10.339-10.9c2.334-4.831,7.932-12.2,11.4-16.57.177,12.043,11.1,22.051,11.1,22.051a98.222,98.222,0,0,0-8.746,16.924C1148.627,326.272,1136.3,325.368,1136.3,325.368Z" transform="translate(-1093.391 -272.311)" fill="#640031"/>
    <path id="Path_302" data-name="Path 302" d="M1230.214,363.353a1.645,1.645,0,1,1-1.805,1.467A1.645,1.645,0,0,1,1230.214,363.353Z" transform="translate(-1172.379 -336.852)" fill="#7a003c"/>
    <rect id="Rectangle_900" data-name="Rectangle 900" width="100.478" height="46.157" transform="matrix(0.962, -0.274, 0.274, 0.962, 77.284, 64.679)" fill="#379b83"/>
    <g id="Group_104" data-name="Group 104" transform="translate(82.533 43.695)">
      <rect id="Rectangle_901" data-name="Rectangle 901" width="100.478" height="46.157" transform="translate(0 18.223) rotate(-10.449)" fill="#4ab198"/>
      <g id="Group_102" data-name="Group 102" transform="translate(4.521 4.292)">
        <path id="Path_303" data-name="Path 303" d="M1543.24,548.1l-4.216-22.861,0-.008-2.075-11.257-1.079.2-18.5,3.413h0l-.211.039-13.861,2.555-1.774.327h0l-14.861,2.742-39.07,7.2-.008,0-.026.006-.663.122-.02,0-.016,0-.994.183,1.5,8.143,1.756,9.521L1452.907,569l21.351-3.937.951-.175,3.541-.653.787-.146,1.039-.191.949-.175,1.811-.335,4.417-.815,1.254-.23,1.738-.321,1.518-.28,8.867-1.635h0l1.8-.333,1.419-.262,12.277-2.264,11.031-2.033,4.031-.744L1544,552.2Zm-5.49,3.579-19.959,3.681h0l-2.384.439h0l-12.485,2.3-1.159.215-8.808,1.624-2.787.514-1.789.331-1.28.236-4.167.768-1.724.317-1.047.195-.994.183-.8.146-3.527.652-1,.185-15.28,2.817a4.395,4.395,0,0,1-5.12-3.525l-2.388-12.952-2.468-13.383a4.4,4.4,0,0,1,3.525-5.122l36.063-6.649,16.885-3.114,4.807-.888h0l6.047-1.114.2-.037h0l15.192-2.8a4.4,4.4,0,0,1,5.12,3.525l4.856,26.335a4.393,4.393,0,0,1-3.526,5.122Z" transform="translate(-1445.856 -513.97)" fill="#379b83"/>
      </g>
      <path id="Path_304" data-name="Path 304" d="M1721.865,647.5a11.571,11.571,0,1,1,9.526-13.305A11.571,11.571,0,0,1,1721.865,647.5Z" transform="translate(-1666.415 -604.441)" fill="#379b83"/>
      <g id="Group_103" data-name="Group 103" transform="translate(26.37 23.424)">
        <path id="Path_305" data-name="Path 305" d="M1603.931,715.893a4.272,4.272,0,1,1,3.516-4.912A4.272,4.272,0,0,1,1603.931,715.893Z" transform="translate(-1598.961 -698.933)" fill="#379b83"/>
        <path id="Path_306" data-name="Path 306" d="M1925.883,656.519a4.272,4.272,0,1,1,3.517-4.912A4.271,4.271,0,0,1,1925.883,656.519Z" transform="translate(-1873.969 -648.104)" fill="#379b83"/>
      </g>
    </g>
    <g id="Group_108" data-name="Group 108" transform="translate(114.823 91.078)">
      <g id="Group_105" data-name="Group 105" transform="translate(7.574 0.398)">
        <path id="Path_307" data-name="Path 307" d="M1696.612,832.429l-.364-.982-2.45-6.6a4.213,4.213,0,0,1-.144-.468,4.5,4.5,0,0,1,2.787-5.293l.254-.094a4.5,4.5,0,0,1,5.762,2.643l2.283,6.153.166.447.364.982a4.494,4.494,0,0,1-2.642,5.761l-.254.094A4.5,4.5,0,0,1,1696.612,832.429Z" transform="translate(-1693.52 -818.714)" fill="#c98659"/>
        <path id="Path_308" data-name="Path 308" d="M1706.724,837.831a26.267,26.267,0,0,1-1.275-4.16,1.753,1.753,0,0,1,.7-1.367,4.053,4.053,0,0,1,1.5-.816,4.73,4.73,0,0,1,.954-.218,4.03,4.03,0,0,1,1.133.045,1.132,1.132,0,0,1,.8.634s0,0,0,.005a25.95,25.95,0,0,1,1.534,4,1.734,1.734,0,0,1-.978,2.143l-.379.135-1.94.691A1.657,1.657,0,0,1,1706.724,837.831Z" transform="translate(-1703.742 -829.461)" fill="#ffd3b6" opacity="0.5"/>
        <path id="Path_309" data-name="Path 309" d="M1706.724,841.827a26.272,26.272,0,0,1-1.275-4.16,1.753,1.753,0,0,1,.7-1.367c.129-.054.265-.1.411-.151a4.743,4.743,0,0,1,.955-.218,4.014,4.014,0,0,1,1.133.045,1.131,1.131,0,0,1,.8.634s0,0,0,0a25.931,25.931,0,0,1,1.534,4,1.891,1.891,0,0,1-.269,1.613l-1.94.691A1.657,1.657,0,0,1,1706.724,841.827Z" transform="translate(-1703.742 -833.457)" fill="#ffc197" opacity="0.5"/>
      </g>
      <g id="Group_106" data-name="Group 106" transform="translate(0 2.171)">
        <path id="Path_310" data-name="Path 310" d="M1641.882,840.022l-1.342-5.085a2.914,2.914,0,0,1,2.068-3.551l.576-.152a2.914,2.914,0,0,1,3.551,2.068l1.342,5.085a2.914,2.914,0,0,1-2.068,3.551l-.576.152A2.914,2.914,0,0,1,1641.882,840.022Z" transform="translate(-1640.444 -831.138)" fill="#c98659"/>
        <path id="Path_311" data-name="Path 311" d="M1648.152,842.677a22.906,22.906,0,0,1-.709-3.506,1.71,1.71,0,0,1,1.109-1.376,3.844,3.844,0,0,1,1.464-.362,2.91,2.91,0,0,1,.868.12.9.9,0,0,1,.575.578s0,0,0,0a22.7,22.7,0,0,1,.919,3.4,1.436,1.436,0,0,1-.89,1.687l-.458.128-1.376.38A1.287,1.287,0,0,1,1648.152,842.677Z" transform="translate(-1646.444 -836.535)" fill="#ffd3b6" opacity="0.5"/>
        <path id="Path_312" data-name="Path 312" d="M1648.152,844.268a22.9,22.9,0,0,1-.709-3.506,1.71,1.71,0,0,1,1.109-1.376,3.221,3.221,0,0,1,.7-.1,2.914,2.914,0,0,1,.868.12.9.9,0,0,1,.575.578s0,0,0,0a22.543,22.543,0,0,1,.918,3.4,1.532,1.532,0,0,1-.583,1.55l-1.376.38A1.287,1.287,0,0,1,1648.152,844.268Z" transform="translate(-1646.444 -838.126)" fill="#ffc197" opacity="0.5"/>
      </g>
      <g id="Group_107" data-name="Group 107" transform="translate(18.525)">
        <path id="Path_313" data-name="Path 313" d="M1772.121,829.956c-.013-.036-.025-.072-.036-.11l-1.656-6.666a5.5,5.5,0,0,1,3.569-6.7l1.379-.385a5.1,5.1,0,0,1,6.122,3.619l.547,2.2,1.109,4.465a5.5,5.5,0,0,1-3.569,6.7l-1.379.385A5.09,5.09,0,0,1,1772.121,829.956Z" transform="translate(-1770.253 -815.928)" fill="#c98659"/>
        <path id="Path_314" data-name="Path 314" d="M1787.308,855.719l-1.432-3.244,0-.02a3.472,3.472,0,0,1-.078-.392c-.008-.054-.014-.11-.019-.164a.461.461,0,0,1,0-.069.514.514,0,0,1,.73-.44,3.214,3.214,0,0,0,2.19.2l.282-.075.009,0,.92-.243a3.442,3.442,0,0,0,1.8-1.158c.055-.066.106-.134.154-.2a.928.928,0,0,1,1.651.285c0,.007,0,.013.006.021l.509,3.551a1.688,1.688,0,0,1-1.329,1.95l-1.047.277-2.234.589C1788.53,856.814,1787.539,856.6,1787.308,855.719Z" transform="translate(-1783.558 -844.725)" fill="#ffd3b6" opacity="0.5"/>
        <path id="Path_315" data-name="Path 315" d="M1787.313,859.289l-1.431-3.243,0-.02c-.014-.076-.052-.313-.1-.624a.514.514,0,0,1,.73-.441,3.214,3.214,0,0,0,2.19.2l.282-.075.008,0,.92-.243a3.443,3.443,0,0,0,1.8-1.158.9.9,0,0,1,.358.512c0,.006,0,.013.006.02l.509,3.551a1.613,1.613,0,0,1-.93,1.8l-2.234.589C1788.536,860.384,1787.545,860.168,1787.313,859.289Z" transform="translate(-1783.564 -848.295)" fill="#ffc197" opacity="0.5"/>
      </g>
    </g>
    <g id="Group_109" data-name="Group 109" transform="translate(114.447 33.348)">
      <path id="Path_316" data-name="Path 316" d="M1638.066,421.58s-1.633-12.753,3.347-9.728c7.258,4.408,22.457,7.638,25.383,9.344,2.17,1.266,13.611,5.374,14.445,5.744a2.553,2.553,0,0,1,.384,2.936,7.062,7.062,0,0,1-3.582,3.442c-7.109,2.764-16.791-2.992-17.1-2.99-8.114.039-16-.868-18.29-.54C1641.854,429.9,1638.066,421.58,1638.066,421.58Z" transform="translate(-1637.81 -411.388)" fill="#c98659"/>
      <path id="Path_317" data-name="Path 317" d="M1896.83,504.291l-8.031-2.92a4.143,4.143,0,0,0-.4,2.6C1888.785,504.976,1896.224,506.744,1896.83,504.291Z" transform="translate(-1852.548 -488.53)" fill="#ffc197" opacity="0.5"/>
    </g>
  </g>
  <g id="Group_115" data-name="Group 115" transform="translate(44.393 97.4)">
    <g id="Group_111" data-name="Group 111" transform="translate(9.301 29.29)">
      <path id="Path_318" data-name="Path 318" d="M914.747,1217.315l1.6,1.3s4.373-1.568,5.359,3.628c0,0,.263,2.215-1.14,2.219a28.042,28.042,0,0,0-2.81-.184c-1.986.058-3.633-.989-3.924-2.6l-.95-1.366Z" transform="translate(-867.039 -1186.66)" fill="#ea8e50"/>
      <path id="Path_319" data-name="Path 319" d="M639.174,1035.944a3.268,3.268,0,0,0,1.173-2.316s-14.767-12.09-16.264-13.075a182.21,182.21,0,0,1-16.979-16.19c-2.522-2.916-5.645-1.784-9.219-.759l-2.943.844c-3.553,1.019-4.478,5.989-1.562,8.4,8.211,6.8,21.872,14.452,24.427,16.06,6.345,3.991,18.765,8.734,18.765,8.734A7.867,7.867,0,0,0,639.174,1035.944Z" transform="translate(-591.647 -1002.503)" fill="#1e3d70"/>
    </g>
    <path id="Path_320" data-name="Path 320" d="M1014.444,1757.333a11.132,11.132,0,0,0,9.075,1.266s4.427-1.009,5.4,1.2c0,0-6.79,3.449-8.508,4.393a20.586,20.586,0,0,0-3.6,2.7,1.781,1.781,0,0,1-2.578-.2c-.3-.367-.64-.8-1.015-1.312-1.047-1.419-3.487-6-3.487-6Z" transform="translate(-940.763 -1620.324)" fill="#204272"/>
    <g id="Group_114" data-name="Group 114" transform="translate(20.231 3.482)">
      <circle id="Ellipse_16" data-name="Ellipse 16" cx="25.056" cy="25.056" r="25.056" transform="translate(2.186 35.434) rotate(-45)" fill="#e2810e"/>
      <circle id="Ellipse_17" data-name="Ellipse 17" cx="25.056" cy="25.056" r="25.056" transform="translate(0 35.434) rotate(-45)" fill="#ffc76c"/>
      <g id="Group_112" data-name="Group 112" transform="translate(12.606 12.902)">
        <path id="Path_321" data-name="Path 321" d="M779.394,957.725a22.829,22.829,0,1,1,16.142-6.687A22.679,22.679,0,0,1,779.394,957.725Zm0-44.3A21.467,21.467,0,1,0,800.861,934.9,21.491,21.491,0,0,0,779.394,913.43Z" transform="translate(-756.565 -912.068)" fill="#ffa412"/>
      </g>
      <g id="Group_113" data-name="Group 113" transform="translate(25.436 18.871)">
        <path id="Path_322" data-name="Path 322" d="M859.615,977.383a3.768,3.768,0,0,0-.054-1.326,2.751,2.751,0,0,0-.56-1.1,5.2,5.2,0,0,0-1.121-.989,13.724,13.724,0,0,0-1.737-.973,35.979,35.979,0,0,1-3.207-1.763,11.354,11.354,0,0,1-2.4-1.952,6.684,6.684,0,0,1-1.417-2.379,7.544,7.544,0,0,1,.61-5.705,6.347,6.347,0,0,1,1.769-1.965,7.925,7.925,0,0,1,2.533-1.206,10.568,10.568,0,0,1,3.163-.365l.446-3.763,3.028.359-.453,3.815a9.473,9.473,0,0,1,2.85,1.212,7.16,7.16,0,0,1,3.19,4.578,9.531,9.531,0,0,1,.125,3.233l-5.47-.649a4.641,4.641,0,0,0-.562-3.267,3.224,3.224,0,0,0-2.384-1.344,4.093,4.093,0,0,0-1.495.063,2.778,2.778,0,0,0-1.09.53,2.593,2.593,0,0,0-.7.906,3.808,3.808,0,0,0-.333,1.191,3.49,3.49,0,0,0,.049,1.2,2.579,2.579,0,0,0,.537,1.054,5.211,5.211,0,0,0,1.13.99,17.645,17.645,0,0,0,1.805,1.043q1.754.9,3.174,1.8a11.5,11.5,0,0,1,2.387,1.968A6.454,6.454,0,0,1,865.089,978a6.9,6.9,0,0,1-.869,2.714,6.272,6.272,0,0,1-1.776,1.947,7.649,7.649,0,0,1-2.547,1.16,11.415,11.415,0,0,1-3.178.336l-.415,3.5-3.01-.357.413-3.481a12.784,12.784,0,0,1-2.957-1.046,8.107,8.107,0,0,1-2.422-1.83,7.252,7.252,0,0,1-1.52-2.721,8.831,8.831,0,0,1-.252-3.7l5.47.649a5.441,5.441,0,0,0,.1,2.125,3.519,3.519,0,0,0,.778,1.447,3.415,3.415,0,0,0,1.251.862,5.843,5.843,0,0,0,1.5.383,4.884,4.884,0,0,0,1.589-.043,3.256,3.256,0,0,0,1.2-.5,2.594,2.594,0,0,0,.795-.877A3.163,3.163,0,0,0,859.615,977.383Z" transform="translate(-846.474 -953.898)" fill="#ffa412"/>
      </g>
    </g>
    <path id="Path_323" data-name="Path 323" d="M725.6,1363.124s-2.182,5.032-7.219,4.107c0,0-10.279-8.489-17.329-17.307a39.155,39.155,0,0,1-5.385-8.415c-4.675-10.825-17.294-26.97-25.318-35.152l20.073-7.262s6.43,12.934,14.985,28.821C711.576,1339.363,718.844,1352.343,725.6,1363.124Z" transform="translate(-649.82 -1227.48)" fill="#2e8087"/>
    <path id="Path_324" data-name="Path 324" d="M705.411,1327.916l-4.355,22.009a39.155,39.155,0,0,1-5.385-8.415c-4.675-10.825-17.294-26.97-25.318-35.152l20.073-7.262S696.856,1312.029,705.411,1327.916Z" transform="translate(-649.82 -1227.48)" fill="#23656b"/>
    <path id="Path_325" data-name="Path 325" d="M757.66,1764.574s-.219,4.015,4.648,4.551c0,0,3.012.078,3.02,2.633l-14.658-.005s-.13-1.044-.23-3.251c-.077-1.7,1.643-6.127,1.643-6.127Z" transform="translate(-718.477 -1624.645)" fill="#204272"/>
    <path id="Path_326" data-name="Path 326" d="M647.734,1293.744s8.943,9.826,14.619,27.529c3.089,9.632-5.661,33.848-7.367,42.262,0,0-5.869.5-9.883-1.053,0,0-.305-17.378,2.042-30.772,1.313-7.5-11.774-16.032-17.493-29.577-3.891-9.215.842-9.058,6.659-9.28Z" transform="translate(-613.711 -1222.129)" fill="#2e8087"/>
    <path id="Path_327" data-name="Path 327" d="M601.463,919.047c-4.975,2.809-15.161.218-15.161.218s4.136-4.729,2.257-12.345l3.906,1.984,4.2,2.131a34.76,34.76,0,0,1,.46,3.761c.048.622.091,1.317.121,2.076A13.05,13.05,0,0,1,601.463,919.047Z" transform="translate(-577.763 -891.271)" fill="#c98659"/>
    <path id="Path_328" data-name="Path 328" d="M597.188,1020.9c0,.874-1.007,1.293-1.221,1.336-2.007.367-7.61,2.547-12.657,3.046a40.476,40.476,0,0,1-12.531-.848c-.574-.116-1.922-.479-2.017-1.029-.12-.6-16.722-33.845-3.816-48.125.3-.335,2.851.269,5.181.821a9.565,9.565,0,0,0,5.888-.481l2.185,1.149c2.683,1.5,7.76,6.807,8.354,10.975.3,2.12,1.514,3.689,1.865,5.554q.2,1.035.4,2.02.4,1.932.817,3.679c.759,3.152,1.56,5.866,2.347,8.211.837,2.489,1.659,4.56,2.392,6.291.952,2.246,1.756,3.925,2.258,5.21A6.42,6.42,0,0,1,597.188,1020.9Z" transform="translate(-555.244 -949.795)" fill="#7ecad0"/>
    <path id="Path_329" data-name="Path 329" d="M626.927,1086.491a65.23,65.23,0,0,1-31.552-32.243s19.041,7.024,23.737,8.853q.4,1.932.817,3.679c.759,3.152,1.56,5.866,2.347,8.211.837,2.489,1.659,4.56,2.392,6.292C625.621,1083.528,626.425,1085.206,626.927,1086.491Z" transform="translate(-585.542 -1017.574)" fill="#2e8087"/>
    <path id="Path_330" data-name="Path 330" d="M906.208,1234.573l2.025.742a4.331,4.331,0,0,1,6.58,1.8s.913,2.037-.532,2.48-.92.026-2.952.7-4.034.189-4.8-1.262l-1.376-1.01Z" transform="translate(-851.111 -1172.055)" fill="#c98659"/>
    <path id="Path_331" data-name="Path 331" d="M623.417,1044.892c.749-1.954,1.091-2.839,1.091-2.839s-15.3-12.473-16.862-13.543c-1.062-.729-11.64-8.636-16.8-14.8a10.793,10.793,0,0,0-10.493-3.636l-3.212.674a4.777,4.777,0,0,0-2.13,8.3c8.474,7.265,22.767,15.691,25.432,17.444,6.616,4.351,21.249,10.448,21.249,10.448A3.768,3.768,0,0,0,623.417,1044.892Z" transform="translate(-566.653 -979.509)" fill="#7ecad0"/>
    <path id="Path_332" data-name="Path 332" d="M613.611,926.714c-4.893.275-8.074-3.765-8.074-3.765a38.854,38.854,0,0,0,3.418-2.127l4.2,2.131A34.8,34.8,0,0,1,613.611,926.714Z" transform="translate(-594.253 -903.189)" fill="#aa724c"/>
    <path id="Path_333" data-name="Path 333" d="M588.1,851.93s-7.413,5.32-10.655.652-6.382-7.124-1.786-10.718,6.763-2.459,8.224-1.164S589.94,850.426,588.1,851.93Z" transform="translate(-566.653 -833.428)" fill="#c98659"/>
    <path id="Path_334" data-name="Path 334" d="M544.476,800.315a11.934,11.934,0,0,0-.864-3.057s-.465,1.927-3.987,1.661-9.1.346-10.964,4.36c-.118.255-.224.518-.318.787a9.286,9.286,0,0,1-.418-2.223,6.851,6.851,0,0,0,0,3.889h0c-.01.063-.018.126-.028.189a7.843,7.843,0,0,0-1.43,2.7,2.447,2.447,0,0,1,1.317-1.17c-.016,3.123,1.251,6.176,3.474,7.085,3.25,1.329,3.224.315,6.494,2.484,0,0,.877-1.088.279-1.819s-2.857-1.794-1.595-2.857,1.728.133,2.193-.6-1.861-2.857,1.13-4.851S544.742,802.109,544.476,800.315Z" transform="translate(-526.468 -797.258)" fill="#2e8087"/>
  </g>
  <g id="Group_117" data-name="Group 117" transform="translate(257.285 82.624)">
    <path id="Path_335" data-name="Path 335" d="M2577.189,1180.319a2.013,2.013,0,0,1,.707,1.123,8.648,8.648,0,0,1-.051,2.223c-.1,1.541,2.034,3.806,3.412,4.593s0-3.281,0-4.265a5.87,5.87,0,0,0-.722-3.937C2579.419,1177.825,2577.189,1180.319,2577.189,1180.319Z" transform="translate(-2497.43 -1109.857)" fill="#c98659"/>
    <path id="Path_336" data-name="Path 336" d="M2359.2,881.712a6.41,6.41,0,0,1,9.658-6.034q.137.083.271.169c6.648,4.279,19.417,21.682,21.307,25.146,1.97,3.608,4.575,19.016,4.575,19.016s-3.6,1.317-5.285-.049c0,0-5.633-13.362-7.7-15.654-2.181-2.415-22.36-13.57-22.552-18.3C2359.421,884.752,2359.321,883.248,2359.2,881.712Z" transform="translate(-2310.532 -848.918)" fill="#4e0026"/>
    <g id="Group_116" data-name="Group 116" transform="translate(40.169 72.141)">
      <path id="Path_337" data-name="Path 337" d="M2582.289,1735.556s2.681,2.446,2.158,4.184-2.942,2.9-3.269,5.021-1.635,3.283-2.811,3.283h-5.611s-.866-1.495,1.226-1.945,2.881-2.947,2.75-5.265a40.885,40.885,0,0,1,.2-5.408l4.446-1.03Z" transform="translate(-2533.646 -1658.026)" fill="#224275"/>
      <path id="Path_338" data-name="Path 338" d="M2315.527,1773.91s.481,5.567-.7,6.147l-15.061-.031s0-1.738,2.419-2.125,6.669-1.8,7.388-4.957S2315.527,1773.91,2315.527,1773.91Z" transform="translate(-2299.771 -1690.053)" fill="#224275"/>
      <path id="Path_339" data-name="Path 339" d="M2321.08,1227.651s.794,9.759,1.728,21.49c1.269,15.935,2.795,35.509,2.946,39.217.261,6.439,1.308,16.739,1.308,16.739s2.483,2.447,7.453,1.416a166.213,166.213,0,0,0,5.694-30.26c.02-.255.039-.512.059-.769,1.177-15.837,3.007-49.184,3.007-49.184Z" transform="translate(-2318.039 -1222.436)" fill="#7ecad0"/>
      <path id="Path_340" data-name="Path 340" d="M2321.08,1227.651s.794,9.759,1.728,21.49l17.4,27.112c.02-.255.039-.512.059-.769,1.177-15.837,3.007-49.184,3.007-49.184Z" transform="translate(-2318.039 -1222.436)" fill="#6baaaf"/>
      <path id="Path_341" data-name="Path 341" d="M2346.5,1205.606s14.318,35.343,23.733,51.952,12.356,21.244,12.356,21.244,5.394-2.125,5.884-3.573c0,0-3.6-32.065-9.9-39.881-3.563-4.417-7.748-17.671-7.944-22.306s-1.275-13.809-1.275-13.809Z" transform="translate(-2339.833 -1199.233)" fill="#7ecad0"/>
    </g>
    <path id="Path_342" data-name="Path 342" d="M2341.632,802.462s-9.594,4.866-15.212,3.242a12.369,12.369,0,0,1,2.18-2.085,3.084,3.084,0,0,0,1.2-2.936q-.084-.525-.142-.988a20.841,20.841,0,0,1-.233-3.26l3.616-2.73,3.488-2.883A14.283,14.283,0,0,0,2341.632,802.462Z" transform="translate(-2282.448 -776.964)" fill="#c98659"/>
    <path id="Path_343" data-name="Path 343" d="M2322.1,903.782a39.526,39.526,0,0,1-11.831,5.1c-5.062,1.2-11.283.846-13.365,1.163a.863.863,0,0,1-.607-.154c-.164-.084-1.082-6.258-2-14.051-.041-.313-.084-.63-.1-.947l-.013-.105c-.358-3.046-.671-6.246-.943-9.454-.222-2.5-.405-4.964-.531-7.283-.159-2.9-.226-5.565-.159-7.758.029-1,.088-1.9.177-2.685a19,19,0,0,1,4.5-10.241l2.363-1.9a8.227,8.227,0,0,0,5.469-1.516c2.072-1.364,4.307-2.831,4.729-2.585,3.175,1.737,5.76,6.239,7.606,12.184a67.812,67.812,0,0,1,2.391,11.417c.167,1.276.31,2.585.418,3.889.021.241.039.482.058.72.249,3.564.656,6.9,1.107,9.886.607,4.023,1.3,7.392,1.785,9.765.245,1.208.432,2.142.543,2.811C2323.786,902.621,2322.617,903.457,2322.1,903.782Z" transform="translate(-2253.383 -828.844)" fill="#7a003c"/>
    <path id="Path_344" data-name="Path 344" d="M2354.191,810.183s-2.36,4.511-7,5.851a38.188,38.188,0,0,1-.3-6.154l3.678.163Z" transform="translate(-2299.991 -793.302)" fill="#a76f49"/>
    <path id="Path_345" data-name="Path 345" d="M2322.784,733.116s8.668,3.545,10.787-1.8,4.665-8.483-.78-10.972-7.335-.874-8.483.737S2320.584,732.056,2322.784,733.116Z" transform="translate(-2278.593 -715.443)" fill="#c98659"/>
    <path id="Path_346" data-name="Path 346" d="M2334.893,699.429c.1-.075.309-.107.734-.033a1.747,1.747,0,0,0-.733-.4,2.166,2.166,0,0,0-.973-2.19,1.292,1.292,0,0,1,.4,1.049c-.888-1.462-3.181-2.905-10.209-3.948-9.262-1.374-7.6,5.14-6.586,6.1s4.42-.256,6.574.423,1.842,3.945,2.486,4.552.529-.23,1.64-.454.824,1.467.283,2.486.514,2.768.514,2.768l1.745-1.184c1.745-1.184,4.53-7.26,4.207-8.766C2334.95,699.7,2334.923,699.564,2334.893,699.429Z" transform="translate(-2274.131 -693.714)" fill="#2e8087"/>
    <path id="Path_347" data-name="Path 347" d="M2308.8,984.644s-7.816,5.947-16.1,7.25c-.159-2.9-.226-5.566-.159-7.758Z" transform="translate(-2253.383 -942.691)" fill="#4d0026"/>
    <path id="Path_348" data-name="Path 348" d="M2027.453,803.373c-.079-.163-.023-5.724-2.771-6.168-1.793-.29-6.437-1.53-6.394.964.017.981,5.831,7.032,5.831,7.032Z" transform="translate(-2018.288 -781.952)" fill="#c98659"/>
    <path id="Path_349" data-name="Path 349" d="M2107.531,848.726a6.411,6.411,0,0,1-4.007,10.661q-.159.017-.318.03c-7.88.639-30.3-5.781-33.4-7.5-5.151-2.849-13.981-11.86-13.981-11.86s2.06-3.234,4.228-3.171c0,0,11.821,7.529,16.053,8.43,2.855.608,25.579-3.478,28.607.164C2105.509,846.445,2106.5,847.579,2107.531,848.726Z" transform="translate(-2050.465 -816.455)" fill="#7a003c"/>
    <path id="Path_350" data-name="Path 350" d="M2602.679,1197.414s.42.926.719,1.648.462,2.067.232,1.936a6.869,6.869,0,0,1-1.312-1.578C2602.056,1198.931,2602.679,1197.414,2602.679,1197.414Z" transform="translate(-2518.918 -1125.533)" fill="#c98659"/>
  </g>
  <g id="Group_118" data-name="Group 118" transform="translate(132.547 137.761)" opacity="0.5">
    <path id="Path_351" data-name="Path 351" d="M1271.279,1117.43s-2.726-22.831-14.425-36.455a2.553,2.553,0,0,0-4.48,1.728c0,.04,0,.08,0,.121C1252.529,1086.9,1265.628,1104.076,1271.279,1117.43Z" transform="translate(-1236.936 -1080.088)" fill="#7ecad0" opacity="0.5"/>
    <path id="Path_352" data-name="Path 352" d="M1179.963,1137.729s-11.658-28.536-31.57-41.157a2.709,2.709,0,0,0-3.673.694c-.53.772-.768,1.977-.173,3.859C1146.134,1106.145,1168.342,1123.04,1179.963,1137.729Z" transform="translate(-1144.199 -1093.85)" fill="#7ecad0" opacity="0.5"/>
  </g>
  <path id="Path_353" data-name="Path 353" d="M960.691,1375.03c1.146-11.894,20.938-11.6,20.938-11.6s16.413,17.683,20.284,17.513-11.08-17.859-11.08-17.859c7.223-1.959,27.468,3.86,27.468,3.86s2.764,23.417,6.473,22.3-3.5-20.61-3.5-20.61c7.469.923,15.512,8.087,15.512,8.087,10.587,12.093-5.487,25.064-5.487,25.064a38.332,38.332,0,0,0,7.678,16.487h0a27.789,27.789,0,0,1,3.047,4.22l-1.937.33q-.37-.739-.781-1.415a.012.012,0,0,0-.005-.008l-.012-.019c-.184-.277-.447-.671-.773-1.149v0l0,0c-.789-1.058-1.334-1.846-1.693-2.421l0-.005c-2.392-3.336-5.753-7.641-7.627-8.345a3.81,3.81,0,0,0,.264-.959l-.264.959c-2.108,7.671-18.489,11.675-28.05,11.351s-5.977-3.615-1.722-8.69,14.868-5.733,17.666-7.915-1.985-3.075-8.064-1.554-8.111,8.2-17.9,10.844-20.551-14.786-20.551-14.786c7.232.964,18.906-4.921,18.977-7.371s-18.129.89-21.093.662S959.545,1386.924,960.691,1375.03Z" transform="translate(-854.208 -1184.587)" fill="#7ecad0" opacity="0.5"/>
  <path id="Path_354" data-name="Path 354" d="M1922.244,1359.262c.191-8.79-14.3-10.289-14.3-10.289s-13.521,11.5-16.335,11.043,9.64-12.092,9.64-12.092c-5.109-2.056-20.4.446-20.4.446s-4.043,16.872-6.657,15.734,4.342-14.757,4.342-14.757c-5.538.029-12.034,4.568-12.034,4.568-8.781,7.921,1.844,18.788,1.844,18.788a28.206,28.206,0,0,1-7.036,11.384h0a20.452,20.452,0,0,0-2.591,2.82l1.387.408q.335-.508.693-.966a.009.009,0,0,1,0-.005l.01-.013c.158-.186.385-.451.664-.773h0v0c.668-.705,1.135-1.234,1.446-1.623l0,0c2.036-2.231,4.864-5.086,6.294-5.439a2.8,2.8,0,0,1-.11-.724c.035.231.072.471.11.724.878,5.787,12.5,10.129,19.516,10.718s4.68-2.125,2.009-6.2-10.369-5.474-12.225-7.31,1.716-2.075,6.027-.438,5.218,6.7,12.142,9.47,16.295-9.028,16.295-9.028c-5.368.079-13.389-5.23-13.23-7.026s13.171,2.217,15.356,2.307S1922.054,1368.053,1922.244,1359.262Z" transform="translate(-1624.202 -1171.246)" fill="#7ecad0" opacity="0.5"/>
  <g id="Group_120" data-name="Group 120" transform="translate(138.86 134.483)">
    <g id="Group_119" data-name="Group 119" transform="translate(0 0)">
      <path id="Path_355" data-name="Path 355" d="M1204.868,1399.3v11.124a3.975,3.975,0,0,1-4.048,3.872h-8.334a3.975,3.975,0,0,1-4.048-3.872V1399.3a3.975,3.975,0,0,1,4.048-3.872h8.334A3.975,3.975,0,0,1,1204.868,1399.3Z" transform="translate(-1188.438 -1347.152)" fill="#7a003c"/>
      <path id="Path_356" data-name="Path 356" d="M1204.868,1399.3v6.2a3.976,3.976,0,0,1-4.048,3.872h-8.334a3.976,3.976,0,0,1-4.048-3.872v-6.2a3.975,3.975,0,0,1,4.048-3.872h8.334A3.975,3.975,0,0,1,1204.868,1399.3Z" transform="translate(-1188.438 -1347.152)" fill="#db8591"/>
      <path id="Path_357" data-name="Path 357" d="M1356.292,1212.847a39.463,39.463,0,0,1-3.415,16.074c-6.594,14.845-22.012,25.325-39.865,25.325h-12.373q-1.113,0-2.213-.053a44.22,44.22,0,0,1-24.191-8.6,42.506,42.506,0,0,1-10.84-11.722,39.59,39.59,0,0,1-2.62-37.1c6.592-14.844,22.01-25.323,39.864-25.323h12.373a43.727,43.727,0,0,1,37.86,21.4A39.662,39.662,0,0,1,1356.292,1212.847Z" transform="translate(-1247.524 -1155.134)" fill="#7a003c"/>
      <path id="Path_358" data-name="Path 358" d="M1673.758,1594.285l-4.037,25.073a3.1,3.1,0,0,0,3.1,3.844h10.609a6.113,6.113,0,0,0,5.4-3.149l16.489-31.459Z" transform="translate(-1600.946 -1512.748)" fill="#7a003c"/>
      <path id="Path_359" data-name="Path 359" d="M1332.576,1640.564h-10.609a6.111,6.111,0,0,1-5.4-3.149l-10.2-17.221-6.72-11.348,32.785,3.232,1.185,9.013,1.061,8.078.992,7.551A3.1,3.1,0,0,1,1332.576,1640.564Z" transform="translate(-1283.779 -1530.11)" fill="#7a003c"/>
      <path id="Path_360" data-name="Path 360" d="M1349.776,1208.062c-8.736,24.03-17,36.877-50.487,38q-.974.033-1.925.057a222.806,222.806,0,0,1-23.13-.524c-1.506-.118-2.88-.246-4.12-.374l-6.72-11.348a39.59,39.59,0,0,1-2.62-37.1c6.592-14.844,22.01-25.323,39.864-25.323h12.373a43.727,43.727,0,0,1,37.86,21.4A32.47,32.47,0,0,1,1349.776,1208.062Z" transform="translate(-1247.524 -1155.134)" fill="#db8591"/>
      <path id="Path_361" data-name="Path 361" d="M1403.943,1083.8H1386.92c-1.716,0-3.108-1-3.108-2.227v-22.231a1.738,1.738,0,0,1,.34-1.024,3.843,3.843,0,0,1,4.649-.75c6.463,3.5,17.052,11.12,18.243,23.854C1407.165,1082.711,1405.741,1083.8,1403.943,1083.8Z" transform="translate(-1355.931 -1057.114)" fill="#db8591"/>
      <path id="Path_362" data-name="Path 362" d="M1387.612,1091.047h-.692c-1.716,0-3.108-1-3.108-2.227v-22.231a1.737,1.737,0,0,1,.34-1.024,2.148,2.148,0,0,1,.21.2,27.142,27.142,0,0,1,7.526,22.509C1391.67,1089.846,1389.822,1091.047,1387.612,1091.047Z" transform="translate(-1355.931 -1064.359)" fill="#7a003c"/>
      <path id="Path_363" data-name="Path 363" d="M1347.571,1333.7a2.539,2.539,0,1,1,2.536,2.426A2.483,2.483,0,0,1,1347.571,1333.7Z" transform="translate(-1324.862 -1292.147)" fill="#7a003c"/>
    </g>
  </g>
  <path id="Path_364" data-name="Path 364" d="M1705.736,1797.294v2.593a.883.883,0,0,0,.2.558,1.184,1.184,0,0,0,.558.374,1.3,1.3,0,0,0,.218.051,1.362,1.362,0,0,0,.21.016H1756.1a1.124,1.124,0,0,0,1.189-.948c0-.017,0-.034,0-.051v-2.593c0-.017,0-.034,0-.052a1.124,1.124,0,0,0-1.189-.948h-49.178a1.378,1.378,0,0,0-.21.016,1.244,1.244,0,0,0-.218.051,1.183,1.183,0,0,0-.558.374A.883.883,0,0,0,1705.736,1797.294Z" transform="translate(-1493.054 -1556.326)" fill="#ffc76c"/>
  <path id="Path_365" data-name="Path 365" d="M1874.957,1800.886H1901.3a1.04,1.04,0,0,0,1.061-.948c0-.017,0-.034,0-.051v-2.593c0-.017,0-.034,0-.052a1.04,1.04,0,0,0-1.061-.948h-23.111A8.051,8.051,0,0,1,1874.957,1800.886Z" transform="translate(-1638.126 -1556.326)" fill="#ffae39"/>
  <g id="Group_121" data-name="Group 121" transform="translate(212.885 239.969)">
    <rect id="Rectangle_902" data-name="Rectangle 902" width="0.559" height="4.591" transform="translate(6.339 4.591) rotate(180)" fill="#ffa412"/>
    <rect id="Rectangle_903" data-name="Rectangle 903" width="0.559" height="4.591" transform="translate(8.231 4.591) rotate(180)" fill="#ffa412"/>
    <rect id="Rectangle_904" data-name="Rectangle 904" width="0.559" height="4.591" transform="translate(10.5 4.591) rotate(180)" fill="#ffa412"/>
    <rect id="Rectangle_905" data-name="Rectangle 905" width="0.559" height="4.591" transform="translate(13.978 4.591) rotate(180)" fill="#ffa412"/>
    <rect id="Rectangle_906" data-name="Rectangle 906" width="0.559" height="4.591" transform="translate(17.655 4.591) rotate(180)" fill="#ffa412"/>
    <rect id="Rectangle_907" data-name="Rectangle 907" width="0.559" height="4.591" transform="translate(23.293 4.591) rotate(180)" fill="#ffa412"/>
    <rect id="Rectangle_908" data-name="Rectangle 908" width="0.559" height="4.591" transform="translate(28.572 4.591) rotate(180)" fill="#ffa412"/>
    <rect id="Rectangle_909" data-name="Rectangle 909" width="0.559" height="4.591" transform="translate(33.285 4.591) rotate(180)" fill="#ffa412"/>
    <rect id="Rectangle_910" data-name="Rectangle 910" width="0.559" height="4.591" transform="translate(4.538 4.591) rotate(180)" fill="#ffa412"/>
    <rect id="Rectangle_911" data-name="Rectangle 911" width="0.559" height="4.591" transform="translate(3.348 4.591) rotate(180)" fill="#ffa412"/>
    <rect id="Rectangle_912" data-name="Rectangle 912" width="0.559" height="4.591" transform="translate(2.2 4.591) rotate(180)" fill="#ffa412"/>
    <path id="Path_366" data-name="Path 366" d="M1712.6,1796.311v4.559a1.362,1.362,0,0,0,.21.016h.349v-4.591h-.349A1.378,1.378,0,0,0,1712.6,1796.311Z" transform="translate(-1711.828 -1796.295)" fill="#ffa412"/>
    <path id="Path_367" data-name="Path 367" d="M1707.165,1797.142v3.708a1.183,1.183,0,0,0,.558.374v-4.456A1.182,1.182,0,0,0,1707.165,1797.142Z" transform="translate(-1707.165 -1796.7)" fill="#ffa412"/>
  </g>
  <path id="Path_368" data-name="Path 368" d="M1742.581,1765.122v2.593a.882.882,0,0,0,.2.558,1.182,1.182,0,0,0,.558.374,1.291,1.291,0,0,0,.218.052,1.4,1.4,0,0,0,.21.016h49.178a1.123,1.123,0,0,0,1.188-.948c0-.017,0-.034,0-.051v-2.593c0-.017,0-.034,0-.051a1.123,1.123,0,0,0-1.188-.948h-49.178c-.032,0-.063,0-.094,0l-.04,0-.044.005-.032,0a1.315,1.315,0,0,0-.218.052l-.031.01-.03.011-.06.024-.034.016-.03.015-.056.03-.061.038-.046.031,0,0-.03.023a1.055,1.055,0,0,0-.086.075l-.024.023-.023.024c-.015.017-.03.034-.044.051A.882.882,0,0,0,1742.581,1765.122Z" transform="translate(-1524.641 -1528.745)" fill="#ffc76c"/>
  <path id="Path_369" data-name="Path 369" d="M1911.8,1768.714h26.346a1.04,1.04,0,0,0,1.061-.948c0-.017,0-.034,0-.051v-2.593c0-.017,0-.034,0-.051a1.039,1.039,0,0,0-1.061-.948h-23.11c-.01.038-.021.075-.032.113A8.032,8.032,0,0,1,1911.8,1768.714Z" transform="translate(-1669.714 -1528.745)" fill="#ffae39"/>
  <g id="Group_122" data-name="Group 122" transform="translate(218.144 235.378)">
    <rect id="Rectangle_913" data-name="Rectangle 913" width="0.559" height="4.591" transform="translate(6.339 4.591) rotate(180)" fill="#ffa412"/>
    <rect id="Rectangle_914" data-name="Rectangle 914" width="0.559" height="4.591" transform="translate(8.231 4.591) rotate(180)" fill="#ffa412"/>
    <rect id="Rectangle_915" data-name="Rectangle 915" width="0.559" height="4.591" transform="translate(10.5 4.591) rotate(180)" fill="#ffa412"/>
    <rect id="Rectangle_916" data-name="Rectangle 916" width="0.559" height="4.591" transform="translate(13.978 4.591) rotate(180)" fill="#ffa412"/>
    <rect id="Rectangle_917" data-name="Rectangle 917" width="0.559" height="4.591" transform="translate(17.655 4.591) rotate(180)" fill="#ffa412"/>
    <rect id="Rectangle_918" data-name="Rectangle 918" width="0.559" height="4.591" transform="translate(23.293 4.591) rotate(180)" fill="#ffa412"/>
    <rect id="Rectangle_919" data-name="Rectangle 919" width="0.559" height="4.591" transform="translate(28.572 4.591) rotate(180)" fill="#ffa412"/>
    <rect id="Rectangle_920" data-name="Rectangle 920" width="0.559" height="4.591" transform="translate(33.285 4.591) rotate(180)" fill="#ffa412"/>
    <rect id="Rectangle_921" data-name="Rectangle 921" width="0.559" height="4.591" transform="translate(4.538 4.591) rotate(180)" fill="#ffa412"/>
    <rect id="Rectangle_922" data-name="Rectangle 922" width="0.559" height="4.591" transform="translate(3.348 4.591) rotate(180)" fill="#ffa412"/>
    <rect id="Rectangle_923" data-name="Rectangle 923" width="0.559" height="4.591" transform="translate(2.2 4.591) rotate(180)" fill="#ffa412"/>
    <path id="Path_370" data-name="Path 370" d="M1749.449,1764.139v4.559a1.38,1.38,0,0,0,.21.016h.349v-4.591h-.349A1.4,1.4,0,0,0,1749.449,1764.139Z" transform="translate(-1748.673 -1764.123)" fill="#ffa412"/>
    <path id="Path_371" data-name="Path 371" d="M1744.01,1764.969v3.708a1.185,1.185,0,0,0,.559.374v-4.456A1.184,1.184,0,0,0,1744.01,1764.969Z" transform="translate(-1744.01 -1764.528)" fill="#ffa412"/>
  </g>
  <path id="Path_372" data-name="Path 372" d="M1724.776,1733.744v2.593a.883.883,0,0,0,.2.558,1.184,1.184,0,0,0,.558.374,1.275,1.275,0,0,0,.218.052,1.394,1.394,0,0,0,.21.016h49.178a1.36,1.36,0,0,0,.549-.113,1.02,1.02,0,0,0,.636-.79c0-.015,0-.03,0-.045s0-.034,0-.051v-2.593c0-.017,0-.034,0-.051a1.123,1.123,0,0,0-1.189-.948h-49.178a1.394,1.394,0,0,0-.21.016,1.287,1.287,0,0,0-.218.052,1.183,1.183,0,0,0-.558.374A.883.883,0,0,0,1724.776,1733.744Z" transform="translate(-1509.377 -1501.845)" fill="#ffc76c"/>
  <path id="Path_373" data-name="Path 373" d="M1894,1737.336h26.346a1.1,1.1,0,0,0,.489-.113,1,1,0,0,0,.568-.79c0-.015,0-.03,0-.045s0-.034,0-.051v-2.593c0-.017,0-.034,0-.051a1.04,1.04,0,0,0-1.061-.948h-23.111a8.059,8.059,0,0,1-3.074,4.478Z" transform="translate(-1654.45 -1501.845)" fill="#ffae39"/>
  <g id="Group_123" data-name="Group 123" transform="translate(215.603 230.9)">
    <rect id="Rectangle_924" data-name="Rectangle 924" width="0.559" height="4.591" transform="translate(6.339 4.591) rotate(180)" fill="#ffa412"/>
    <rect id="Rectangle_925" data-name="Rectangle 925" width="0.559" height="4.591" transform="translate(8.231 4.591) rotate(180)" fill="#ffa412"/>
    <rect id="Rectangle_926" data-name="Rectangle 926" width="0.559" height="4.591" transform="translate(10.5 4.591) rotate(180)" fill="#ffa412"/>
    <rect id="Rectangle_927" data-name="Rectangle 927" width="0.559" height="4.591" transform="translate(13.978 4.591) rotate(180)" fill="#ffa412"/>
    <rect id="Rectangle_928" data-name="Rectangle 928" width="0.559" height="4.591" transform="translate(17.655 4.591) rotate(180)" fill="#ffa412"/>
    <rect id="Rectangle_929" data-name="Rectangle 929" width="0.559" height="4.591" transform="translate(23.293 4.591) rotate(180)" fill="#ffa412"/>
    <rect id="Rectangle_930" data-name="Rectangle 930" width="0.559" height="4.591" transform="translate(28.571 4.591) rotate(180)" fill="#ffa412"/>
    <rect id="Rectangle_931" data-name="Rectangle 931" width="0.559" height="4.591" transform="translate(33.285 4.591) rotate(180)" fill="#ffa412"/>
    <rect id="Rectangle_932" data-name="Rectangle 932" width="0.559" height="4.591" transform="translate(4.538 4.591) rotate(180)" fill="#ffa412"/>
    <rect id="Rectangle_933" data-name="Rectangle 933" width="0.559" height="4.591" transform="translate(3.348 4.591) rotate(180)" fill="#ffa412"/>
    <rect id="Rectangle_934" data-name="Rectangle 934" width="0.559" height="4.591" transform="translate(2.199 4.591) rotate(180)" fill="#ffa412"/>
    <path id="Path_374" data-name="Path 374" d="M1731.644,1732.761v4.559a1.4,1.4,0,0,0,.21.016h.349v-4.591h-.349A1.379,1.379,0,0,0,1731.644,1732.761Z" transform="translate(-1730.868 -1732.745)" fill="#ffa412"/>
    <path id="Path_375" data-name="Path 375" d="M1726.2,1733.591v3.708a1.185,1.185,0,0,0,.558.374v-4.456A1.184,1.184,0,0,0,1726.2,1733.591Z" transform="translate(-1726.205 -1733.15)" fill="#ffa412"/>
  </g>
  <path id="Path_376" data-name="Path 376" d="M1716.522,1701.573v2.593a.883.883,0,0,0,.2.558,1.184,1.184,0,0,0,.558.374,1.278,1.278,0,0,0,.218.051,1.363,1.363,0,0,0,.21.016h49.178a1.123,1.123,0,0,0,1.189-.948c0-.017,0-.034,0-.051v-2.593c0-.017,0-.034,0-.051a1.1,1.1,0,0,0-1.048-.941,1.362,1.362,0,0,0-.141-.007h-49.178a1.394,1.394,0,0,0-.21.016,1.313,1.313,0,0,0-.218.051,1.184,1.184,0,0,0-.558.374A.882.882,0,0,0,1716.522,1701.573Z" transform="translate(-1502.301 -1474.265)" fill="#ffc76c"/>
  <path id="Path_377" data-name="Path 377" d="M1885.743,1705.165h26.346a1.04,1.04,0,0,0,1.061-.948c0-.017,0-.034,0-.051v-2.593c0-.017,0-.034,0-.051a1.032,1.032,0,0,0-.935-.941,1.084,1.084,0,0,0-.126-.007h-23.111l0,.007A8.05,8.05,0,0,1,1885.743,1705.165Z" transform="translate(-1647.373 -1474.265)" fill="#ffae39"/>
  <g id="Group_124" data-name="Group 124" transform="translate(214.425 226.309)">
    <rect id="Rectangle_935" data-name="Rectangle 935" width="0.559" height="4.591" transform="translate(6.339 4.591) rotate(180)" fill="#ffa412"/>
    <rect id="Rectangle_936" data-name="Rectangle 936" width="0.559" height="4.591" transform="translate(8.231 4.591) rotate(180)" fill="#ffa412"/>
    <rect id="Rectangle_937" data-name="Rectangle 937" width="0.559" height="4.591" transform="translate(10.5 4.591) rotate(180)" fill="#ffa412"/>
    <rect id="Rectangle_938" data-name="Rectangle 938" width="0.559" height="4.591" transform="translate(13.978 4.591) rotate(180)" fill="#ffa412"/>
    <rect id="Rectangle_939" data-name="Rectangle 939" width="0.559" height="4.591" transform="translate(17.655 4.591) rotate(180)" fill="#ffa412"/>
    <rect id="Rectangle_940" data-name="Rectangle 940" width="0.559" height="4.591" transform="translate(23.293 4.591) rotate(180)" fill="#ffa412"/>
    <rect id="Rectangle_941" data-name="Rectangle 941" width="0.559" height="4.591" transform="translate(28.572 4.591) rotate(180)" fill="#ffa412"/>
    <rect id="Rectangle_942" data-name="Rectangle 942" width="0.559" height="4.591" transform="translate(33.285 4.591) rotate(180)" fill="#ffa412"/>
    <rect id="Rectangle_943" data-name="Rectangle 943" width="0.559" height="4.591" transform="translate(4.538 4.591) rotate(180)" fill="#ffa412"/>
    <rect id="Rectangle_944" data-name="Rectangle 944" width="0.559" height="4.591" transform="translate(3.348 4.591) rotate(180)" fill="#ffa412"/>
    <rect id="Rectangle_945" data-name="Rectangle 945" width="0.559" height="4.591" transform="translate(2.2 4.591) rotate(180)" fill="#ffa412"/>
    <path id="Path_378" data-name="Path 378" d="M1723.389,1700.588v4.559a1.394,1.394,0,0,0,.21.016h.349v-4.591h-.349A1.378,1.378,0,0,0,1723.389,1700.588Z" transform="translate(-1722.613 -1700.572)" fill="#ffa412"/>
    <path id="Path_379" data-name="Path 379" d="M1717.95,1701.419v3.708a1.184,1.184,0,0,0,.558.374v-4.456A1.182,1.182,0,0,0,1717.95,1701.419Z" transform="translate(-1717.95 -1700.978)" fill="#ffa412"/>
  </g>
  <path id="Path_380" data-name="Path 380" d="M1741.857,1669.452v2.593a.883.883,0,0,0,.2.558,1.185,1.185,0,0,0,.559.374,1.274,1.274,0,0,0,.218.052l.069.009.039,0,.039,0,.063,0h49.178a1.124,1.124,0,0,0,1.189-.948c0-.017,0-.034,0-.051v-2.593c0-.017,0-.034,0-.052s0-.028,0-.042a1.077,1.077,0,0,0-.892-.875l-.036-.007a1.407,1.407,0,0,0-.257-.024h-49.178c-.036,0-.072,0-.106,0l-.047,0h0l-.055.008a1.273,1.273,0,0,0-.218.051,1.185,1.185,0,0,0-.559.374A.884.884,0,0,0,1741.857,1669.452Z" transform="translate(-1524.021 -1446.728)" fill="#ffc76c"/>
  <path id="Path_381" data-name="Path 381" d="M1911.079,1673.044h26.346a1.04,1.04,0,0,0,1.061-.948c0-.017,0-.034,0-.051v-2.593c0-.017,0-.034,0-.052s0-.028,0-.042a1.026,1.026,0,0,0-.824-.881l-.045-.009a1.112,1.112,0,0,0-.188-.016h-23.111c0,.011-.006.021-.009.033a8.044,8.044,0,0,1-3.216,4.551Z" transform="translate(-1669.094 -1446.728)" fill="#ffae39"/>
  <g id="Group_125" data-name="Group 125" transform="translate(218.04 221.725)">
    <rect id="Rectangle_946" data-name="Rectangle 946" width="0.559" height="4.591" transform="translate(6.339 4.591) rotate(180)" fill="#ffa412"/>
    <rect id="Rectangle_947" data-name="Rectangle 947" width="0.559" height="4.591" transform="translate(8.231 4.591) rotate(180)" fill="#ffa412"/>
    <rect id="Rectangle_948" data-name="Rectangle 948" width="0.559" height="4.591" transform="translate(10.5 4.591) rotate(180)" fill="#ffa412"/>
    <rect id="Rectangle_949" data-name="Rectangle 949" width="0.559" height="4.591" transform="translate(13.978 4.591) rotate(180)" fill="#ffa412"/>
    <rect id="Rectangle_950" data-name="Rectangle 950" width="0.559" height="4.591" transform="translate(17.655 4.591) rotate(180)" fill="#ffa412"/>
    <rect id="Rectangle_951" data-name="Rectangle 951" width="0.559" height="4.591" transform="translate(23.293 4.591) rotate(180)" fill="#ffa412"/>
    <rect id="Rectangle_952" data-name="Rectangle 952" width="0.559" height="4.591" transform="translate(28.572 4.591) rotate(180)" fill="#ffa412"/>
    <rect id="Rectangle_953" data-name="Rectangle 953" width="0.559" height="4.591" transform="translate(33.285 4.591) rotate(180)" fill="#ffa412"/>
    <rect id="Rectangle_954" data-name="Rectangle 954" width="0.559" height="4.591" transform="translate(4.538 4.591) rotate(180)" fill="#ffa412"/>
    <rect id="Rectangle_955" data-name="Rectangle 955" width="0.559" height="4.591" transform="translate(3.348 4.591) rotate(180)" fill="#ffa412"/>
    <rect id="Rectangle_956" data-name="Rectangle 956" width="0.559" height="4.591" transform="translate(2.2 4.591) rotate(180)" fill="#ffa412"/>
    <path id="Path_382" data-name="Path 382" d="M1748.725,1668.467v4.559a1.393,1.393,0,0,0,.21.016h.349v-4.591h-.349A1.362,1.362,0,0,0,1748.725,1668.467Z" transform="translate(-1747.949 -1668.451)" fill="#ffa412"/>
    <path id="Path_383" data-name="Path 383" d="M1743.286,1669.3v3.708a1.184,1.184,0,0,0,.558.374v-4.456A1.185,1.185,0,0,0,1743.286,1669.3Z" transform="translate(-1743.286 -1668.857)" fill="#ffa412"/>
  </g>
  <path id="Path_384" data-name="Path 384" d="M1742.581,1637.509v2.593a.882.882,0,0,0,.2.558,1.184,1.184,0,0,0,.558.374,1.222,1.222,0,0,0,.17.043h0l.047.008a1.365,1.365,0,0,0,.21.016h49.178a1.252,1.252,0,0,0,.154-.009l.059-.008a1.081,1.081,0,0,0,.976-.931c0-.017,0-.034,0-.051v-2.593c0-.017,0-.034,0-.052a1.123,1.123,0,0,0-1.188-.948h-49.178c-.032,0-.063,0-.094,0l-.04,0-.044,0-.032,0a1.256,1.256,0,0,0-.218.051l-.031.011-.03.011-.06.024c-.022.01-.043.02-.064.031l-.056.03c-.021.012-.042.025-.061.038s-.031.021-.046.031l0,0-.03.023a1.055,1.055,0,0,0-.086.075l-.024.023-.023.024c-.015.016-.03.034-.044.051A.882.882,0,0,0,1742.581,1637.509Z" transform="translate(-1524.641 -1419.343)" fill="#ffc76c"/>
  <path id="Path_385" data-name="Path 385" d="M1911.8,1641.1h26.346l.062,0c.023,0,.045,0,.068-.006a1.029,1.029,0,0,0,.93-.94c0-.017,0-.034,0-.051v-2.593c0-.017,0-.034,0-.052a1.039,1.039,0,0,0-1.061-.948h-23.11c-.01.037-.021.075-.032.113a8.037,8.037,0,0,1-3.156,4.445Z" transform="translate(-1669.714 -1419.343)" fill="#ffae39"/>
  <g id="Group_126" data-name="Group 126" transform="translate(218.144 217.166)">
    <rect id="Rectangle_957" data-name="Rectangle 957" width="0.559" height="4.591" transform="translate(6.339 4.591) rotate(180)" fill="#ffa412"/>
    <rect id="Rectangle_958" data-name="Rectangle 958" width="0.559" height="4.591" transform="translate(8.231 4.591) rotate(180)" fill="#ffa412"/>
    <rect id="Rectangle_959" data-name="Rectangle 959" width="0.559" height="4.591" transform="translate(10.5 4.591) rotate(180)" fill="#ffa412"/>
    <rect id="Rectangle_960" data-name="Rectangle 960" width="0.559" height="4.591" transform="translate(13.978 4.591) rotate(180)" fill="#ffa412"/>
    <rect id="Rectangle_961" data-name="Rectangle 961" width="0.559" height="4.591" transform="translate(17.655 4.591) rotate(180)" fill="#ffa412"/>
    <rect id="Rectangle_962" data-name="Rectangle 962" width="0.559" height="4.591" transform="translate(23.293 4.591) rotate(180)" fill="#ffa412"/>
    <rect id="Rectangle_963" data-name="Rectangle 963" width="0.559" height="4.591" transform="translate(28.572 4.591) rotate(180)" fill="#ffa412"/>
    <rect id="Rectangle_964" data-name="Rectangle 964" width="0.559" height="4.591" transform="translate(33.285 4.591) rotate(180)" fill="#ffa412"/>
    <rect id="Rectangle_965" data-name="Rectangle 965" width="0.559" height="4.591" transform="translate(4.538 4.591) rotate(180)" fill="#ffa412"/>
    <rect id="Rectangle_966" data-name="Rectangle 966" width="0.559" height="4.591" transform="translate(3.348 4.591) rotate(180)" fill="#ffa412"/>
    <rect id="Rectangle_967" data-name="Rectangle 967" width="0.559" height="4.591" transform="translate(2.2 4.591) rotate(180)" fill="#ffa412"/>
    <path id="Path_386" data-name="Path 386" d="M1749.449,1636.526v4.559a1.364,1.364,0,0,0,.21.016h.349v-4.591h-.349A1.364,1.364,0,0,0,1749.449,1636.526Z" transform="translate(-1748.673 -1636.51)" fill="#ffa412"/>
    <path id="Path_387" data-name="Path 387" d="M1744.01,1637.356v3.708a1.186,1.186,0,0,0,.559.374v-4.456A1.186,1.186,0,0,0,1744.01,1637.356Z" transform="translate(-1744.01 -1636.915)" fill="#ffa412"/>
  </g>
  <path id="Path_388" data-name="Path 388" d="M1724.776,1606.131v2.593a.883.883,0,0,0,.2.558,1.183,1.183,0,0,0,.558.374,1.275,1.275,0,0,0,.218.051,1.363,1.363,0,0,0,.21.016h49.178a1.364,1.364,0,0,0,.549-.113,1.02,1.02,0,0,0,.636-.79c0-.015,0-.03,0-.045s0-.034,0-.051v-2.593c0-.017,0-.034,0-.052a1.124,1.124,0,0,0-1.189-.948h-49.178a1.378,1.378,0,0,0-.21.016,1.3,1.3,0,0,0-.218.051,1.185,1.185,0,0,0-.558.374A.882.882,0,0,0,1724.776,1606.131Z" transform="translate(-1509.377 -1392.443)" fill="#ffc76c"/>
  <path id="Path_389" data-name="Path 389" d="M1894,1609.723h26.346a1.1,1.1,0,0,0,.489-.113,1,1,0,0,0,.568-.79c0-.015,0-.03,0-.045s0-.034,0-.051v-2.593c0-.017,0-.034,0-.052a1.04,1.04,0,0,0-1.061-.948h-23.111a8.06,8.06,0,0,1-3.074,4.478Z" transform="translate(-1654.45 -1392.443)" fill="#ffae39"/>
  <g id="Group_127" data-name="Group 127" transform="translate(215.603 212.689)">
    <rect id="Rectangle_968" data-name="Rectangle 968" width="0.559" height="4.591" transform="translate(6.339 4.591) rotate(180)" fill="#ffa412"/>
    <rect id="Rectangle_969" data-name="Rectangle 969" width="0.559" height="4.591" transform="translate(8.231 4.591) rotate(180)" fill="#ffa412"/>
    <rect id="Rectangle_970" data-name="Rectangle 970" width="0.559" height="4.591" transform="translate(10.5 4.591) rotate(180)" fill="#ffa412"/>
    <rect id="Rectangle_971" data-name="Rectangle 971" width="0.559" height="4.591" transform="translate(13.978 4.591) rotate(180)" fill="#ffa412"/>
    <rect id="Rectangle_972" data-name="Rectangle 972" width="0.559" height="4.591" transform="translate(17.655 4.591) rotate(180)" fill="#ffa412"/>
    <rect id="Rectangle_973" data-name="Rectangle 973" width="0.559" height="4.591" transform="translate(23.293 4.591) rotate(180)" fill="#ffa412"/>
    <rect id="Rectangle_974" data-name="Rectangle 974" width="0.559" height="4.591" transform="translate(28.571 4.591) rotate(180)" fill="#ffa412"/>
    <rect id="Rectangle_975" data-name="Rectangle 975" width="0.559" height="4.591" transform="translate(33.285 4.591) rotate(180)" fill="#ffa412"/>
    <rect id="Rectangle_976" data-name="Rectangle 976" width="0.559" height="4.591" transform="translate(4.538 4.591) rotate(180)" fill="#ffa412"/>
    <rect id="Rectangle_977" data-name="Rectangle 977" width="0.559" height="4.591" transform="translate(3.348 4.591) rotate(180)" fill="#ffa412"/>
    <rect id="Rectangle_978" data-name="Rectangle 978" width="0.559" height="4.591" transform="translate(2.199 4.591) rotate(180)" fill="#ffa412"/>
    <path id="Path_390" data-name="Path 390" d="M1731.644,1605.149v4.559a1.379,1.379,0,0,0,.21.016h.349v-4.591h-.349A1.379,1.379,0,0,0,1731.644,1605.149Z" transform="translate(-1730.868 -1605.133)" fill="#ffa412"/>
    <path id="Path_391" data-name="Path 391" d="M1726.2,1605.978v3.708a1.184,1.184,0,0,0,.558.374V1605.6A1.186,1.186,0,0,0,1726.2,1605.978Z" transform="translate(-1726.205 -1605.537)" fill="#ffa412"/>
  </g>
  <path id="Path_392" data-name="Path 392" d="M1696.615,1573.96v2.593a.882.882,0,0,0,.2.558,1.184,1.184,0,0,0,.558.374,1.312,1.312,0,0,0,.218.051,1.379,1.379,0,0,0,.21.016h49.178a1.124,1.124,0,0,0,1.188-.948c0-.017,0-.034,0-.051v-2.593c0-.017,0-.034,0-.051a1.1,1.1,0,0,0-1.048-.941,1.306,1.306,0,0,0-.141-.007H1697.8a1.379,1.379,0,0,0-.21.016,1.3,1.3,0,0,0-.218.052,1.182,1.182,0,0,0-.558.374A.882.882,0,0,0,1696.615,1573.96Z" transform="translate(-1485.235 -1364.863)" fill="#ffc76c"/>
  <path id="Path_393" data-name="Path 393" d="M1865.836,1577.552h26.346a1.04,1.04,0,0,0,1.061-.948c0-.017,0-.034,0-.051v-2.593c0-.017,0-.034,0-.051a1.066,1.066,0,0,0-1.061-.948h-23.111l0,.007A8.049,8.049,0,0,1,1865.836,1577.552Z" transform="translate(-1630.307 -1364.863)" fill="#ffae39"/>
  <g id="Group_128" data-name="Group 128" transform="translate(211.584 208.097)">
    <rect id="Rectangle_979" data-name="Rectangle 979" width="0.559" height="4.591" transform="translate(6.339 4.591) rotate(180)" fill="#ffa412"/>
    <rect id="Rectangle_980" data-name="Rectangle 980" width="0.559" height="4.591" transform="translate(8.231 4.591) rotate(180)" fill="#ffa412"/>
    <rect id="Rectangle_981" data-name="Rectangle 981" width="0.559" height="4.591" transform="translate(10.5 4.591) rotate(180)" fill="#ffa412"/>
    <rect id="Rectangle_982" data-name="Rectangle 982" width="0.559" height="4.591" transform="translate(13.978 4.591) rotate(180)" fill="#ffa412"/>
    <rect id="Rectangle_983" data-name="Rectangle 983" width="0.559" height="4.591" transform="translate(17.655 4.591) rotate(180)" fill="#ffa412"/>
    <rect id="Rectangle_984" data-name="Rectangle 984" width="0.559" height="4.591" transform="translate(23.293 4.591) rotate(180)" fill="#ffa412"/>
    <rect id="Rectangle_985" data-name="Rectangle 985" width="0.559" height="4.591" transform="translate(28.572 4.591) rotate(180)" fill="#ffa412"/>
    <rect id="Rectangle_986" data-name="Rectangle 986" width="0.559" height="4.591" transform="translate(33.285 4.591) rotate(180)" fill="#ffa412"/>
    <rect id="Rectangle_987" data-name="Rectangle 987" width="0.559" height="4.591" transform="translate(4.538 4.591) rotate(180)" fill="#ffa412"/>
    <rect id="Rectangle_988" data-name="Rectangle 988" width="0.559" height="4.591" transform="translate(3.348 4.591) rotate(180)" fill="#ffa412"/>
    <rect id="Rectangle_989" data-name="Rectangle 989" width="0.559" height="4.591" transform="translate(2.2 4.591) rotate(180)" fill="#ffa412"/>
    <path id="Path_394" data-name="Path 394" d="M1703.48,1572.976v4.559a1.4,1.4,0,0,0,.21.016h.349v-4.591h-.349A1.38,1.38,0,0,0,1703.48,1572.976Z" transform="translate(-1702.704 -1572.96)" fill="#ffa412"/>
    <path id="Path_395" data-name="Path 395" d="M1698.042,1573.807v3.708a1.184,1.184,0,0,0,.558.374v-4.456A1.183,1.183,0,0,0,1698.042,1573.807Z" transform="translate(-1698.042 -1573.365)" fill="#ffa412"/>
  </g>
  <path id="Path_396" data-name="Path 396" d="M1741.857,1541.839v2.593a.883.883,0,0,0,.2.558,1.187,1.187,0,0,0,.559.374,1.285,1.285,0,0,0,.218.051l.069.009.055,0,.028,0h49.236a1.123,1.123,0,0,0,1.189-.948c0-.017,0-.034,0-.051v-2.593c0-.017,0-.034,0-.051a1.123,1.123,0,0,0-1.189-.948h-49.178l-.063,0a1.364,1.364,0,0,0-.147.014,1.3,1.3,0,0,0-.218.051c-.036.012-.07.025-.1.039s-.041.018-.061.028l-.007,0-.06.031-.01.006a.6.6,0,0,0-.053.032,1,1,0,0,0-.119.087l-.033.029-.006.006-.021.019,0,0c-.012.012-.024.024-.035.036s-.032.035-.047.054A.883.883,0,0,0,1741.857,1541.839Z" transform="translate(-1524.021 -1337.326)" fill="#ffc76c"/>
  <path id="Path_397" data-name="Path 397" d="M1911.079,1545.431h26.346a1.04,1.04,0,0,0,1.061-.948c0-.017,0-.034,0-.051v-2.593c0-.017,0-.034,0-.051a1.04,1.04,0,0,0-1.061-.948h-23.111c-.009.035-.019.07-.03.106a8.032,8.032,0,0,1-3.195,4.478Z" transform="translate(-1669.094 -1337.326)" fill="#ffae39"/>
  <g id="Group_129" data-name="Group 129" transform="translate(218.04 203.514)">
    <rect id="Rectangle_990" data-name="Rectangle 990" width="0.559" height="4.591" transform="translate(6.339 4.591) rotate(180)" fill="#ffa412"/>
    <rect id="Rectangle_991" data-name="Rectangle 991" width="0.559" height="4.591" transform="translate(8.231 4.591) rotate(180)" fill="#ffa412"/>
    <rect id="Rectangle_992" data-name="Rectangle 992" width="0.559" height="4.591" transform="translate(10.5 4.591) rotate(180)" fill="#ffa412"/>
    <rect id="Rectangle_993" data-name="Rectangle 993" width="0.559" height="4.591" transform="translate(13.978 4.591) rotate(180)" fill="#ffa412"/>
    <rect id="Rectangle_994" data-name="Rectangle 994" width="0.559" height="4.591" transform="translate(17.655 4.591) rotate(180)" fill="#ffa412"/>
    <rect id="Rectangle_995" data-name="Rectangle 995" width="0.559" height="4.591" transform="translate(23.293 4.591) rotate(180)" fill="#ffa412"/>
    <rect id="Rectangle_996" data-name="Rectangle 996" width="0.559" height="4.591" transform="translate(28.572 4.591) rotate(180)" fill="#ffa412"/>
    <rect id="Rectangle_997" data-name="Rectangle 997" width="0.559" height="4.591" transform="translate(33.285 4.591) rotate(180)" fill="#ffa412"/>
    <rect id="Rectangle_998" data-name="Rectangle 998" width="0.559" height="4.591" transform="translate(4.538 4.591) rotate(180)" fill="#ffa412"/>
    <rect id="Rectangle_999" data-name="Rectangle 999" width="0.559" height="4.591" transform="translate(3.348 4.591) rotate(180)" fill="#ffa412"/>
    <rect id="Rectangle_1000" data-name="Rectangle 1000" width="0.559" height="4.591" transform="translate(2.2 4.591) rotate(180)" fill="#ffa412"/>
    <path id="Path_398" data-name="Path 398" d="M1748.725,1540.856v4.559a1.362,1.362,0,0,0,.21.016h.349v-4.591h-.349A1.393,1.393,0,0,0,1748.725,1540.856Z" transform="translate(-1747.949 -1540.84)" fill="#ffa412"/>
    <path id="Path_399" data-name="Path 399" d="M1743.286,1541.685v3.708a1.185,1.185,0,0,0,.558.374v-4.457A1.186,1.186,0,0,0,1743.286,1541.685Z" transform="translate(-1743.286 -1541.244)" fill="#ffa412"/>
  </g>
  <path id="Path_400" data-name="Path 400" d="M1716.522,1510.41V1513a.883.883,0,0,0,.2.558,1.184,1.184,0,0,0,.558.374,1.3,1.3,0,0,0,.218.051,1.378,1.378,0,0,0,.21.016h49.178a1.361,1.361,0,0,0,.531-.106,1.022,1.022,0,0,0,.654-.8c0-.013,0-.027,0-.041s0-.034,0-.051v-2.593c0-.017,0-.034,0-.051a1.1,1.1,0,0,0-1.048-.941,1.328,1.328,0,0,0-.141-.007h-49.178a1.394,1.394,0,0,0-.21.016,1.289,1.289,0,0,0-.218.051,1.184,1.184,0,0,0-.558.374A.882.882,0,0,0,1716.522,1510.41Z" transform="translate(-1502.301 -1310.382)" fill="#ffc76c"/>
  <path id="Path_401" data-name="Path 401" d="M1885.743,1514h26.346a1.1,1.1,0,0,0,.474-.106,1,1,0,0,0,.583-.8c0-.013,0-.027,0-.041s0-.034,0-.051v-2.593c0-.017,0-.034,0-.051a1.031,1.031,0,0,0-.935-.941,1.057,1.057,0,0,0-.126-.007h-23.111l0,.007a8.056,8.056,0,0,1-3.082,4.478C1885.845,1513.932,1885.794,1513.967,1885.743,1514Z" transform="translate(-1647.373 -1310.382)" fill="#ffae39"/>
  <g id="Group_130" data-name="Group 130" transform="translate(214.425 199.029)">
    <rect id="Rectangle_1001" data-name="Rectangle 1001" width="0.559" height="4.591" transform="translate(6.339 4.591) rotate(180)" fill="#ffa412"/>
    <rect id="Rectangle_1002" data-name="Rectangle 1002" width="0.559" height="4.591" transform="translate(8.231 4.591) rotate(180)" fill="#ffa412"/>
    <rect id="Rectangle_1003" data-name="Rectangle 1003" width="0.559" height="4.591" transform="translate(10.5 4.591) rotate(180)" fill="#ffa412"/>
    <rect id="Rectangle_1004" data-name="Rectangle 1004" width="0.559" height="4.591" transform="translate(13.978 4.591) rotate(180)" fill="#ffa412"/>
    <rect id="Rectangle_1005" data-name="Rectangle 1005" width="0.559" height="4.591" transform="translate(17.655 4.591) rotate(180)" fill="#ffa412"/>
    <rect id="Rectangle_1006" data-name="Rectangle 1006" width="0.559" height="4.591" transform="translate(23.293 4.591) rotate(180)" fill="#ffa412"/>
    <rect id="Rectangle_1007" data-name="Rectangle 1007" width="0.559" height="4.591" transform="translate(28.572 4.591) rotate(180)" fill="#ffa412"/>
    <rect id="Rectangle_1008" data-name="Rectangle 1008" width="0.559" height="4.591" transform="translate(33.285 4.591) rotate(180)" fill="#ffa412"/>
    <rect id="Rectangle_1009" data-name="Rectangle 1009" width="0.559" height="4.591" transform="translate(4.538 4.591) rotate(180)" fill="#ffa412"/>
    <rect id="Rectangle_1010" data-name="Rectangle 1010" width="0.559" height="4.591" transform="translate(3.348 4.591) rotate(180)" fill="#ffa412"/>
    <rect id="Rectangle_1011" data-name="Rectangle 1011" width="0.559" height="4.591" transform="translate(2.2 4.591) rotate(180)" fill="#ffa412"/>
    <path id="Path_402" data-name="Path 402" d="M1723.389,1509.426v4.559a1.394,1.394,0,0,0,.21.016h.349v-4.591h-.349A1.378,1.378,0,0,0,1723.389,1509.426Z" transform="translate(-1722.613 -1509.41)" fill="#ffa412"/>
    <path id="Path_403" data-name="Path 403" d="M1717.95,1510.257v3.708a1.183,1.183,0,0,0,.558.374v-4.456A1.183,1.183,0,0,0,1717.95,1510.257Z" transform="translate(-1717.95 -1509.815)" fill="#ffa412"/>
  </g>
  <path id="Path_404" data-name="Path 404" d="M1705.736,1478.289v2.593a.883.883,0,0,0,.2.558,1.184,1.184,0,0,0,.558.374,1.289,1.289,0,0,0,.218.051l.069.009.039,0,.039,0,.063,0H1756.1a1.124,1.124,0,0,0,1.189-.948c0-.017,0-.034,0-.051v-2.593c0-.017,0-.034,0-.051a1.123,1.123,0,0,0-1.189-.948h-49.178a1.378,1.378,0,0,0-.21.016,1.266,1.266,0,0,0-.218.051,1.185,1.185,0,0,0-.558.374A.883.883,0,0,0,1705.736,1478.289Z" transform="translate(-1493.054 -1282.845)" fill="#ffc76c"/>
  <path id="Path_405" data-name="Path 405" d="M1874.957,1481.881H1901.3a1.04,1.04,0,0,0,1.061-.948c0-.017,0-.034,0-.051v-2.593c0-.017,0-.034,0-.051a1.04,1.04,0,0,0-1.061-.948h-23.111a8.047,8.047,0,0,1-3.225,4.584Z" transform="translate(-1638.126 -1282.845)" fill="#ffae39"/>
  <g id="Group_131" data-name="Group 131" transform="translate(212.885 194.445)">
    <rect id="Rectangle_1012" data-name="Rectangle 1012" width="0.559" height="4.591" transform="translate(6.339 4.591) rotate(180)" fill="#ffa412"/>
    <rect id="Rectangle_1013" data-name="Rectangle 1013" width="0.559" height="4.591" transform="translate(8.231 4.591) rotate(180)" fill="#ffa412"/>
    <rect id="Rectangle_1014" data-name="Rectangle 1014" width="0.559" height="4.591" transform="translate(10.5 4.591) rotate(180)" fill="#ffa412"/>
    <rect id="Rectangle_1015" data-name="Rectangle 1015" width="0.559" height="4.591" transform="translate(13.978 4.591) rotate(180)" fill="#ffa412"/>
    <rect id="Rectangle_1016" data-name="Rectangle 1016" width="0.559" height="4.591" transform="translate(17.655 4.591) rotate(180)" fill="#ffa412"/>
    <rect id="Rectangle_1017" data-name="Rectangle 1017" width="0.559" height="4.591" transform="translate(23.293 4.591) rotate(180)" fill="#ffa412"/>
    <rect id="Rectangle_1018" data-name="Rectangle 1018" width="0.559" height="4.591" transform="translate(28.572 4.591) rotate(180)" fill="#ffa412"/>
    <rect id="Rectangle_1019" data-name="Rectangle 1019" width="0.559" height="4.591" transform="translate(32.726 0)" fill="#ffa412"/>
    <rect id="Rectangle_1020" data-name="Rectangle 1020" width="0.559" height="4.591" transform="translate(4.538 4.591) rotate(180)" fill="#ffa412"/>
    <rect id="Rectangle_1021" data-name="Rectangle 1021" width="0.559" height="4.591" transform="translate(3.348 4.591) rotate(180)" fill="#ffa412"/>
    <rect id="Rectangle_1022" data-name="Rectangle 1022" width="0.559" height="4.591" transform="translate(2.2 4.591) rotate(180)" fill="#ffa412"/>
    <path id="Path_406" data-name="Path 406" d="M1712.6,1477.3v4.559a1.378,1.378,0,0,0,.21.016h.349v-4.591h-.349A1.378,1.378,0,0,0,1712.6,1477.3Z" transform="translate(-1711.828 -1477.289)" fill="#ffa412"/>
    <path id="Path_407" data-name="Path 407" d="M1707.165,1478.136v3.708a1.184,1.184,0,0,0,.558.374v-4.456A1.183,1.183,0,0,0,1707.165,1478.136Z" transform="translate(-1707.165 -1477.694)" fill="#ffa412"/>
  </g>
  <g id="Group_134" data-name="Group 134" transform="translate(238.826 187.949)">
    <circle id="Ellipse_18" data-name="Ellipse 18" cx="23.372" cy="23.372" r="23.372" transform="translate(0 33.054) rotate(-45)" fill="#e2810e"/>
    <circle id="Ellipse_19" data-name="Ellipse 19" cx="23.372" cy="23.372" r="23.372" transform="translate(2.039 33.054) rotate(-45)" fill="#ffc76c"/>
    <g id="Group_132" data-name="Group 132" transform="translate(13.798 12.035)">
      <path id="Path_408" data-name="Path 408" d="M1991.865,1552.455a21.295,21.295,0,1,1,15.058,6.237A21.156,21.156,0,0,1,1991.865,1552.455ZM1986.9,1537.4a20.024,20.024,0,1,0,20.025-20.024A20.047,20.047,0,0,0,1986.9,1537.4Z" transform="translate(-1985.628 -1516.103)" fill="#ffa412"/>
    </g>
    <g id="Group_133" data-name="Group 133" transform="translate(25.773 17.603)">
      <path id="Path_409" data-name="Path 409" d="M2081.8,1577.028a3.508,3.508,0,0,0-.05-1.237,2.566,2.566,0,0,0-.523-1.027,4.847,4.847,0,0,0-1.045-.922,12.808,12.808,0,0,0-1.62-.907,33.5,33.5,0,0,1-2.992-1.644,10.6,10.6,0,0,1-2.237-1.821,6.236,6.236,0,0,1-1.322-2.219,7.038,7.038,0,0,1,.569-5.322,5.925,5.925,0,0,1,1.65-1.833,7.389,7.389,0,0,1,2.363-1.125,9.85,9.85,0,0,1,2.95-.34l.416-3.51,2.825.335-.422,3.559a8.838,8.838,0,0,1,2.659,1.13,6.677,6.677,0,0,1,2.976,4.27,8.9,8.9,0,0,1,.117,3.016l-5.1-.605a4.331,4.331,0,0,0-.525-3.048,3.008,3.008,0,0,0-2.224-1.254,3.827,3.827,0,0,0-1.395.059,2.593,2.593,0,0,0-1.017.495,2.409,2.409,0,0,0-.655.846,3.549,3.549,0,0,0-.311,1.111,3.266,3.266,0,0,0,.046,1.12,2.408,2.408,0,0,0,.5.983,4.872,4.872,0,0,0,1.054.923,16.406,16.406,0,0,0,1.685.973q1.636.843,2.96,1.682a10.731,10.731,0,0,1,2.226,1.836,6.023,6.023,0,0,1,1.55,5.049,6.432,6.432,0,0,1-.811,2.531,5.848,5.848,0,0,1-1.656,1.816,7.14,7.14,0,0,1-2.376,1.082,10.633,10.633,0,0,1-2.965.314l-.387,3.264-2.807-.333.385-3.248a11.922,11.922,0,0,1-2.758-.976,7.558,7.558,0,0,1-2.26-1.707,6.765,6.765,0,0,1-1.418-2.538,8.239,8.239,0,0,1-.235-3.454l5.1.606a5.071,5.071,0,0,0,.1,1.982,3.283,3.283,0,0,0,.726,1.35,3.183,3.183,0,0,0,1.167.8,5.446,5.446,0,0,0,1.4.357,4.555,4.555,0,0,0,1.482-.04,3.031,3.031,0,0,0,1.121-.466,2.42,2.42,0,0,0,.742-.819A2.945,2.945,0,0,0,2081.8,1577.028Z" transform="translate(-2069.543 -1555.121)" fill="#ffa412"/>
    </g>
  </g>
  <g id="Group_135" data-name="Group 135" transform="translate(133.698 208.922)">
    <path id="Path_410" data-name="Path 410" d="M1338.491,1584.362s-2.949,4.153-5.654,4.21-6.818-1.925-6.818-1.925-2.483-5.533-.8-7.7a3.617,3.617,0,0,1,3.455.568,5.308,5.308,0,0,1,.914.876,2.9,2.9,0,0,0,1.419.962c1.93.587,4.22-.794,5.076.539a9.041,9.041,0,0,0,1.492,1.766A6.8,6.8,0,0,0,1338.491,1584.362Z" transform="translate(-1300.037 -1578.74)" fill="#ffeddc"/>
    <path id="Path_411" data-name="Path 411" d="M1152.271,1673.383s10.425-25.261,29.191-25.743c0,0,17.322,1.925,18.285,25.743Z" transform="translate(-1152.271 -1637.808)" fill="#ffeddc"/>
    <path id="Path_412" data-name="Path 412" d="M1320.581,1633.4s7.522,1.673,9.843.69c0,0,.351-3.145-2.817-2.7a6.646,6.646,0,0,1-4.411-1.163C1322.02,1629.629,1320.268,1632.089,1320.581,1633.4Z" transform="translate(-1296.53 -1622.801)" fill="#f9ddbf"/>
    <path id="Path_413" data-name="Path 413" d="M1354.906,1589.269c-.481.361-1.958-5.086-1.958-5.086a5.3,5.3,0,0,1,.914.876,2.9,2.9,0,0,0,1.42.962C1355.286,1586.18,1355.373,1588.918,1354.906,1589.269Z" transform="translate(-1324.31 -1583.406)" fill="#e5c1a1"/>
    <path id="Path_414" data-name="Path 414" d="M1390.649,1602.606a31,31,0,0,1-4.056,2.146c-.481,0,2.565-3.912,2.565-3.912A9.057,9.057,0,0,0,1390.649,1602.606Z" transform="translate(-1353.109 -1597.686)" fill="#e5c1a1"/>
    <path id="Path_415" data-name="Path 415" d="M1223.619,1711.118c-.193-.165,7.378-11.147,9.463-11.228s6.77,2.406,10.161,2.727,6.68-.642,7.321,1.363,2.406,9.113,1.323,10.25S1227.782,1714.675,1223.619,1711.118Z" transform="translate(-1213.434 -1682.6)" fill="#f9ddbf"/>
  </g>
  <g id="Group_142" data-name="Group 142" transform="translate(183.616 122.805)">
    <g id="Group_141" data-name="Group 141" transform="translate(0 0)">
      <g id="Group_140" data-name="Group 140">
        <path id="Path_419" data-name="Path 419" d="M1792.991,1613.448a1.282,1.282,0,0,1,.229,1.372.011.011,0,0,1,0,.007,8.525,8.525,0,0,1-2.694,2.955c-.162.131-.307.25-.432.36-.033.029-.066.058-.1.087l-.075.068c-1.184,1.092-.739,1.342-2.866,3.557-2.426,2.524-4.1,2.569-4.571,2.339-.4-.2.415-1.535,1.319-3.039.044-.073.087-.146.132-.219.12-.2.24-.4.36-.6,1.06-1.811.788-2.66.537-5.355-.2-2.19-3.407-12.234-3.407-12.234l4.648-.8s1.4,8,2.942,9.229c.825.657,1.748.665,2.541,1.152.056.034.111.068.165.1A6.1,6.1,0,0,1,1792.991,1613.448Z" transform="translate(-1741.557 -1512.513)" fill="#c98659"/>
        <path id="Path_420" data-name="Path 420" d="M1798.719,1675.811a1.282,1.282,0,0,1,.229,1.372.012.012,0,0,1,0,.007,9.871,9.871,0,0,1-2.7,2.946c-.16.133-.3.255-.428.37-.033.029-.066.058-.1.087l-.075.068c-1.184,1.092-.739,1.342-2.866,3.557-2.426,2.524-4.1,2.569-4.571,2.339-.4-.2.415-1.535,1.32-3.039a10.338,10.338,0,0,0,4.324-3.186c1.461-1.864,2.435-4.259,3.429-5.646.056.034.111.069.165.1A6.1,6.1,0,0,1,1798.719,1675.811Z" transform="translate(-1747.285 -1574.875)" fill="#233862"/>
        <path id="Path_421" data-name="Path 421" d="M1516.014,1602.046c-.287,1.435-2.332,1.2-4.617.637s-1.742.105-4.994-.255-4.237-1.573-4.337-2.056c-.089-.429,1.518-.58,3.242-.779.217-.025.435-.051.652-.078,1.946-.244,3.371-1.5,5.139-2.531,1.674-.977,4.173-4.957,4.173-4.957l4.46.353s-2.34,3.555-3.246,5.1a5.388,5.388,0,0,0-.438,3.039A5.725,5.725,0,0,1,1516.014,1602.046Z" transform="translate(-1502.062 -1504.014)" fill="#c98659"/>
        <path id="Path_422" data-name="Path 422" d="M1511.4,1648.137c-2.285-.558-1.742.105-4.994-.255s-4.237-1.573-4.337-2.056c-.089-.429,1.518-.58,3.242-.779l.016.033a9.167,9.167,0,0,0,4.657,1.448c2.206.054,4.544-.579,6.067-.554a5.727,5.727,0,0,1-.034,1.526C1515.727,1648.934,1513.682,1648.695,1511.4,1648.137Z" transform="translate(-1502.062 -1549.467)" fill="#233862"/>
        <path id="Path_423" data-name="Path 423" d="M1719.6,1419.438l4.169,11.219,5.443,14.649a8.821,8.821,0,0,0,2.892-.264,12.537,12.537,0,0,0,2.8-1.361s-1.511-15.729-4.331-24.758a16.079,16.079,0,0,0-2.426-5.248C1723.775,1408.51,1719.6,1419.438,1719.6,1419.438Z" transform="translate(-1688.558 -1349.925)" fill="#2e8087"/>
        <path id="Path_424" data-name="Path 424" d="M1601.192,1324.073c2.731-.881,10.522.25,18.348,1.782l1.638-2.7,16.9-1.32s5.578,12.37,2.524,20.252a2.858,2.858,0,0,1-2.861,1.926h-.247s-10.061-.006-13.328-.006c-8.407,0-17.791-5.778-19.005-6.021-1.987-.4-2.782,3.577-4.769,7.75s-18.679,18.48-18.679,18.48a14.691,14.691,0,0,1-3.625-.372,3.571,3.571,0,0,1-1.557-.982S1595.032,1326.06,1601.192,1324.073Z" transform="translate(-1565.909 -1272.377)" fill="#7ecad0"/>
        <path id="Path_425" data-name="Path 425" d="M1836,1002.555c5.331,4.335,18.176,11.849,18.246,11.816,0,0,4.115,2.465,6.922,1.255,4.679-2.016,8.272-9.073,1.8-16.882-3.228-3.894-5.9-5.177-5.276-10.354.681-5.609-1.852-12.662-8.308-12.958a17.821,17.821,0,0,0-6.143.271C1837.3,977.57,1827.354,999.682,1836,1002.555Z" transform="translate(-1785.443 -975.281)" fill="#2e8087"/>
        <path id="Path_426" data-name="Path 426" d="M1895.942,1150.947c-.348.961-9.487,1.817-14.687,1.472a7.127,7.127,0,0,1-3.356-.725c-1.855-1.611-1.67,1.932-1.924-15.022-.123-8.27,7.017-15.635,7.017-15.635s.57,3.533,7.651-.672c.252-.147,3.04,3.982,5.725,9.067C1899.325,1135.05,1896.3,1149.96,1895.942,1150.947Z" transform="translate(-1822.614 -1099.658)" fill="#72b8be"/>
        <path id="Path_427" data-name="Path 427" d="M1748.818,1470.513l5.443,14.649a8.819,8.819,0,0,0,2.892-.264,12.543,12.543,0,0,0,2.8-1.361s-1.511-15.729-4.331-24.758Z" transform="translate(-1713.604 -1389.78)" fill="#7ecad0"/>
        <path id="Path_428" data-name="Path 428" d="M1802.8,1125.086s-6.465,1.586-8.142,4.373c-2.042,3.393-12.226,18.693-12.226,18.693s10.039,3.551,11.75,1.84,5.954-15.876,5.954-15.876Z" transform="translate(-1742.422 -1103.708)" fill="#72b8be"/>
        <path id="Path_429" data-name="Path 429" d="M1928.089,1085.371a17.568,17.568,0,0,1-4.54,3.133c-.756.276-2.012.578-2.012.578s-1.008-1.02-1.023-1.034c-.9-.837,0-1.078-.131-2.661-.007-.075-.013-.152-.022-.228a28.566,28.566,0,0,0-.725-3.835.015.015,0,0,1,0-.005l6.256-1.789-.2.346C1926.073,1083.122,1927.239,1085.276,1928.089,1085.371Z" transform="translate(-1860.043 -1064.653)" fill="#c98659"/>
        <path id="Path_430" data-name="Path 430" d="M1925.889,1079.53a6.99,6.99,0,0,1-5.636,4.784,29.85,29.85,0,0,0-.618-2.99.015.015,0,0,1,0-.005Z" transform="translate(-1860.043 -1064.653)" fill="#95613e"/>
        <path id="Path_431" data-name="Path 431" d="M1890.55,1018s8.433-.561,8-5.807.369-8.851-5.033-8.715-6.283,2.224-6.565,4.01S1888.345,1018.015,1890.55,1018Z" transform="translate(-1832.001 -999.455)" fill="#c98659"/>
        <path id="Path_432" data-name="Path 432" d="M1901.718,996.046s2.1,6.148,7.07,6.862c3.629.521,5.07-.46,5.07-.46a14.242,14.242,0,0,1-3.123-4.886,2.564,2.564,0,0,0-2.008-1.65C1906.143,995.514,1902.809,993.8,1901.718,996.046Z" transform="translate(-1844.685 -992.112)" fill="#2e8087"/>
        <path id="Path_433" data-name="Path 433" d="M1887.225,1003.66a5.563,5.563,0,0,0-2.556,2.856,10.735,10.735,0,0,0-.635,5.359s-2.425-5.609-.669-8.138C1885.227,1001.057,1887.225,1003.66,1887.225,1003.66Z" transform="translate(-1828.404 -998.638)" fill="#2e8087"/>
        <path id="Path_434" data-name="Path 434" d="M1917.49,1120.577s.516,3.114,1.154,3.695a4.526,4.526,0,0,1-2.385-2.688S1916.825,1120.648,1917.49,1120.577Z" transform="translate(-1857.151 -1099.842)" fill="#2e8087"/>
        <path id="Path_435" data-name="Path 435" d="M1857.625,1194.7s-4.709,5.649-4.129,7.695,3.84,2.046,3.84,2.046-.609-4.359,0-6.627S1858.327,1194.567,1857.625,1194.7Z" transform="translate(-1803.301 -1163.378)" fill="#91b0f2"/>
        <path id="Path_436" data-name="Path 436" d="M1948.463,1232.02s6.783-4.135,6.695-6.536,0-6.809.639-6.192,2.648,5.568,2.454,6.97-7.043,11.19-7.891,11.166C1944.313,1237.259,1948.463,1232.02,1948.463,1232.02Z" transform="translate(-1883.568 -1184.42)" fill="#2e8087"/>
        <path id="Path_437" data-name="Path 437" d="M1938.206,1110.352s-3.7,4.659-5.237,5.154a10.535,10.535,0,0,0,7.426-3.633S1939.368,1110.367,1938.206,1110.352Z" transform="translate(-1871.476 -1091.077)" fill="#2e8087"/>
        <g id="Group_139" data-name="Group 139" transform="translate(27.685 22.147)">
          <circle id="Ellipse_20" data-name="Ellipse 20" cx="17.191" cy="17.191" r="17.191" transform="translate(1.619 33.799) rotate(-78.401)" fill="#e2810e"/>
          <circle id="Ellipse_21" data-name="Ellipse 21" cx="17.191" cy="17.191" r="17.191" transform="matrix(0.21, -0.978, 0.978, 0.21, 0, 33.616)" fill="#ffc76c"/>
          <g id="Group_137" data-name="Group 137" transform="translate(4.753 4.956)">
            <path id="Path_438" data-name="Path 438" d="M1745.031,1196.529a15.663,15.663,0,1,1,11.075-4.588A15.559,15.559,0,0,1,1745.031,1196.529Zm0-30.391a14.728,14.728,0,1,0,14.728,14.728A14.745,14.745,0,0,0,1745.031,1166.138Z" transform="translate(-1729.368 -1165.204)" fill="#ffa412"/>
          </g>
          <g id="Group_138" data-name="Group 138" transform="translate(13.556 9.052)">
            <path id="Path_439" data-name="Path 439" d="M1800.07,1210.016a2.587,2.587,0,0,0-.037-.91,1.89,1.89,0,0,0-.385-.755,3.561,3.561,0,0,0-.769-.678,9.408,9.408,0,0,0-1.192-.667,24.651,24.651,0,0,1-2.2-1.209,7.792,7.792,0,0,1-1.645-1.339,4.588,4.588,0,0,1-.972-1.632,5.176,5.176,0,0,1,.418-3.914,4.352,4.352,0,0,1,1.214-1.348,5.433,5.433,0,0,1,1.738-.828,7.245,7.245,0,0,1,2.17-.25l.306-2.582,2.078.246-.311,2.618a6.5,6.5,0,0,1,1.956.831,4.913,4.913,0,0,1,2.189,3.141,6.545,6.545,0,0,1,.086,2.218l-3.753-.445a3.184,3.184,0,0,0-.386-2.242,2.212,2.212,0,0,0-1.636-.922,2.812,2.812,0,0,0-1.026.043,1.909,1.909,0,0,0-.748.364,1.776,1.776,0,0,0-.482.622,2.621,2.621,0,0,0-.229.817,2.392,2.392,0,0,0,.034.823,1.766,1.766,0,0,0,.368.723,3.579,3.579,0,0,0,.775.679,12.109,12.109,0,0,0,1.239.716q1.2.62,2.178,1.237a7.884,7.884,0,0,1,1.637,1.35,4.43,4.43,0,0,1,1.14,3.714,4.734,4.734,0,0,1-.6,1.862,4.3,4.3,0,0,1-1.219,1.336,5.251,5.251,0,0,1-1.747.8,7.82,7.82,0,0,1-2.181.231l-.285,2.4-2.065-.245.284-2.389a8.774,8.774,0,0,1-2.029-.718,5.56,5.56,0,0,1-1.662-1.256,4.974,4.974,0,0,1-1.043-1.867,6.061,6.061,0,0,1-.173-2.541l3.753.445a3.731,3.731,0,0,0,.071,1.458,2.415,2.415,0,0,0,.534.993,2.342,2.342,0,0,0,.858.591,4,4,0,0,0,1.029.263,3.351,3.351,0,0,0,1.09-.03,2.233,2.233,0,0,0,.824-.343,1.777,1.777,0,0,0,.545-.6A2.169,2.169,0,0,0,1800.07,1210.016Z" transform="translate(-1791.054 -1193.903)" fill="#ffa412"/>
          </g>
        </g>
        <path id="Path_440" data-name="Path 440" d="M1710.2,1277.761s-.192-2.824.875-2.713c1.31.136,2.7,3.243,2.062,3.844S1710.216,1278.458,1710.2,1277.761Z" transform="translate(-1680.488 -1232.267)" fill="#c98659"/>
        <path id="Path_441" data-name="Path 441" d="M1918.882,1332.073l-1.593-.954a4.118,4.118,0,0,0-1.569-.311c-.582.083-1.964-.161-2.007.065s1.328,1.234,1.328,1.234c-.825,1.265-3.813,1.5-4.04,1.974-.276.578,1.074,1.12,1.807,1.434a4.268,4.268,0,0,0,3.686-.22c.79-.6,2.09-1.391,2.09-1.391Z" transform="translate(-1852.611 -1280.042)" fill="#c98659"/>
        <path id="Path_442" data-name="Path 442" d="M1961.077,1120.4s6.69.438,8.363,3.047,7.044,17.473,6.175,22.022-16.78,10.01-16.78,10.01a2.986,2.986,0,0,1-.7-2.241,4.664,4.664,0,0,1,.509-1.923s9.762-8.158,9.09-9.782C1965.248,1135.53,1961.077,1120.4,1961.077,1120.4Z" transform="translate(-1893.047 -1099.688)" fill="#72b8be"/>
      </g>
    </g>
  </g>
  <path id="Path_443" data-name="Path 443" d="M672.879,1828.747l-391.794-.135a.5.5,0,0,1-.5-.5v-.3a.5.5,0,0,1,.5-.5l391.794.135a.5.5,0,0,1,.5.5v.3A.5.5,0,0,1,672.879,1828.747Z" transform="translate(-271.285 -1582.92)" fill="#2e3552"/>
</svg>
