<svg id="Layer_1" data-name="Layer 1" xmlns="http://www.w3.org/2000/svg" viewBox="0 0 2000 2000"><defs><style>.cls-1{fill:#fff;}.cls-2{fill:#e5f4f6;}.cls-3{fill:#ffb27d;}.cls-4{fill:#a9453d;}.cls-5{fill:#c98659;}.cls-6{fill:#ac6f46;}.cls-7{fill:#2a4e96;}.cls-8{fill:#e7f1fd;}.cls-9{fill:#1e3d70;}.cls-10{fill:#233862;}.cls-11{fill:#ee9849;}.cls-12{fill:#e58638;}.cls-13{fill:#2b478b;}.cls-14{fill:#2c3a64;}.cls-15{fill:#dbaf8f;}.cls-16{fill:#efcbab;}.cls-17{fill:#ebf3fa;}.cls-18{fill:#b5c1cf;}.cls-19{fill:#2e3552;}</style></defs><rect class="cls-1" width="2000" height="2000"/><path class="cls-2" d="M153.93,1910S-94.59,1241.44,111.39,806.2C715.06-469.41,1931.8,174.08,1790.59,1097.45c-61.25,400.54,206.06,414.05,66.57,813.42Z" transform="translate(0 0)"/><path class="cls-3" d="M957,1881.38l0-10.58s-49.67-54.31-64.92-81.94l-41.93-76.31-54.9,13.38,69.68,97.28Z" transform="translate(0 0)"/><path class="cls-4" d="M650.57,481.49c9.59-38.87-4.31-57-16.85-66.6-6-14.31-12.75-24.62-19.69-28.51-12.66-7.09-27.84-7.86-38.45-7.24,2.73-2.78,8.11-3.8,8.11-3.8-6.59-1-21.28,5.47-21.28,5.47-91.55-34.75-105.94,98.05-104,128.91s1.66,67.19-46,91.5c-90.89,46.38,30.21,221.17,30.21,221.17C440.31,797.46,557.08,665.88,618,626.48,632.84,605,638.11,567,638.51,564c-2.56,30.13-7.79,47-12.47,56.54C653.81,595.34,657.92,534.89,650.57,481.49Z" transform="translate(0 0)"/><path class="cls-5" d="M614.4,628.44c.31.13-29.41,15.34-51.77,9.31-21-5.65-34.77-32.51-34.48-32.57,8.91-1.74,11.47-13.8,11.29-65.6l4,.78,67.7,13.2s-1.55,21-1.59,40.76C609.52,610.92,610.55,626.67,614.4,628.44Z" transform="translate(0 0)"/><path class="cls-6" d="M611.16,553.56s-1.55,21-1.59,40.76c-37.88-1.05-57.9-35.09-66.11-54Z" transform="translate(0 0)"/><path class="cls-7" d="M881,1762.19l-35.89,1.08-38.84,1.17s-89.71-98.4-140-256.14q-1.76-5.5-3.72-11.13c-27.54-79.12-84.64-178.42-114.72-268.3-4.79-14.32-9.09-27.8-13-40.55q-1.86-6.13-3.58-12c-22.18-75.9-28.6-125.73-34.51-179L714,999S749.06,1362.57,881,1762.19Z" transform="translate(0 0)"/><path class="cls-8" d="M683.56,876c-.54,101.85,15.17,145.54,15.17,145.54s-93,46.56-203.59,12.29c-1.3-.4-71.13-18.8-71.13-18.8,1.85-4.12,18.3-72.76,20.1-76.55,23.35-49.38,20.66-72.92,23.43-88.11,5.14-28.34,5.25-57.67,2.69-85.33-6.74-73.22-26.81-134-26.81-134,30.13-6.75,58.34-18.62,89.69-30.2,7.21,8.85,29.26,18.1,48.39,17.68,22-.48,29.16-9.76,28-19.9,23.47,12.86,42.19,25,42.19,25,19.95,34.13,60.41,67.28,63.33,119.64C715.77,756.18,683.58,873.17,683.56,876Z" transform="translate(0 0)"/><path class="cls-5" d="M623.81,572.28s-89.63,1.46-89.69-53.54-11.67-91.85,45.55-95.1,68.36,17.72,72.91,36.07S647.12,570.49,623.81,572.28Z" transform="translate(0 0)"/><path class="cls-4" d="M620.49,422.29s-24.54,64.52-62.2,74.06-54-.4-54-.4,5.9-33.19,11.9-72.65C516.19,423.3,602,391.58,620.49,422.29Z" transform="translate(0 0)"/><path class="cls-4" d="M614.41,427.53s18.32,14.4,22.79,28.41,6.48,42.83,15,41.85c0,0,18.49-43.85-2.29-68.66C627.89,402.82,614.41,427.53,614.41,427.53Z" transform="translate(0 0)"/><path class="cls-3" d="M556.66,1868.11c-3-16.53-8.86-45.11-8.86-45.11l1.35-101.4H486.63l23.4,97.05a97.41,97.41,0,0,1-4.81,40.54s-6,26.94,20.94,27.44S559.71,1884.63,556.66,1868.11Z" transform="translate(0 0)"/><path class="cls-9" d="M505.22,1859.19s-5.07,32.23-2,45.75c0,0,7.95.52,27.52.52,18.55,0,28.48-.52,28.48-.52s.57-34.68-4.39-46.44C554.81,1858.5,535.72,1886.73,505.22,1859.19Z" transform="translate(0 0)"/><polygon class="cls-5" points="764.83 946.72 807.16 1073.86 783.01 1083.4 713.02 971.07 764.83 946.72"/><path class="cls-9" d="M988.91,1904.94s-54.09,1-63.24,0-16.22-17.32-26.13-36.86c-4-8-13.16-12.39-22.49-14.81l.44,51.67H863.77l-14.17-54.51c-8.8-15.92-2.12-30.28,4.07-42.86,7.2,0,28,4.76,64.68,45.49,12.06,13.37,25.37,18.15,38.59,17.74a4.2,4.2,0,0,0,.55.29C988,1884.61,988.91,1904.94,988.91,1904.94Z" transform="translate(0 0)"/><path class="cls-7" d="M775.35,959.09s-6.55-16.59-15.26-37.55-30.59-225-45-255.43-64.36-49.94-64.36-49.94l-41.18-17.52s51.85,126.19,53.38,151.73S669,1168,669,1168s-3,18,32,10.51,44.23-15,44.23-15-12.74-91.83-20.38-182C750.18,980,775.35,959.09,775.35,959.09Z" transform="translate(0 0)"/><path class="cls-9" d="M845.08,1763.27l-38.84,1.17s-89.71-98.4-140-256.14q-1.76-5.5-3.72-11.13c-27.54-79.12-84.64-178.42-114.72-268.3-4.79-14.32-9.09-27.8-13-40.55q-1.86-6.13-3.58-12l32-23.92S659.28,1305.59,689,1449.8C714.85,1575.06,818.31,1725.79,845.08,1763.27Z" transform="translate(0 0)"/><path class="cls-7" d="M566.56,1463.23c.55,70.13-3,231.36-12.32,298.1H519.83c-19,0-28.5-.27-28.5-.27-23.25-116-39.8-212.08-51.85-294.83-9.88-67.9-18.66-126.12-25.42-176.23-6.8-50.44-11.53-92.67-13.22-128.35-.26-5.61-.46-11.08-.56-16.39s-.14-10.51-.1-15.55l187.73-18C585.55,1234.56,566.26,1422.47,566.56,1463.23Z" transform="translate(0 0)"/><path class="cls-9" d="M519.83,1761.33c-19,0-28.5-.27-28.5-.27-23.25-116-39.8-212.08-51.85-294.83-9.88-67.9-18.66-126.12-25.42-176.23-6.8-50.44-11.53-92.67-13.22-128.35l68.88,39.92s-44,15.28-27.19,131S496.49,1745,519.83,1761.33Z" transform="translate(0 0)"/><path class="cls-7" d="M528.7,1160.51s-13.22,47.07-59,41.06-110.81-33-110.81-33,19.55-60.86,43.86-140.81c29.43-96.8,65.86-221.58,83-300.28,4.82-22.06,8.11-40.48,9.33-53.67l38-72.54s56.59,125.13,59.64,156.67S528.7,1160.51,528.7,1160.51Z" transform="translate(0 0)"/><path class="cls-5" d="M483,753.19l50.09-152c-.13.06-63.27,18.5-95,34.31,0,0-19.85,25.21-32.13,83.37,0,0-13,139.65,16,190.73,0,0,91.5,18,237.9-31.55V845s-160.13,8.26-192.91,12Z" transform="translate(0 0)"/><path class="cls-9" d="M526.67,824c-2,51.07-14.24,150.23-123,203.3-.29.14-.58.29-.87.41,29.43-96.8,65.86-221.58,83-300.28C505.79,756.84,527.78,795.87,526.67,824Z" transform="translate(0 0)"/><path class="cls-7" d="M533.11,601.22s-92.86,6.44-115.23,55.52-29.48,212.32-1,260.4c0,0,39.19,11,108.5-1.77l2.57-.48s22.11-53.34,2.28-63.85c0,0-58.45,3-52.35-16S533.11,601.22,533.11,601.22Z" transform="translate(0 0)"/><path class="cls-4" d="M765.94,865.45l-2.74,8.66-152.37-46.7a5.68,5.68,0,0,1-1-5.31c1.1-3.34,3.76-3.35,3.76-3.35Z" transform="translate(0 0)"/><polygon class="cls-4" points="776.96 873.63 765.94 865.45 763.2 874.11 776.96 873.63"/><path class="cls-5" d="M801.15,1070.38s38.65,21,43.74,37.08,1.59,49.61-4.55,49.1S825.05,1120.49,820,1118s-12.2-10-12.2-4.5,5.08,15.53,2.54,17-10.68-14-16.27-17-7.95-27.79-13.39-34.44S801.15,1070.38,801.15,1070.38Z" transform="translate(0 0)"/><path class="cls-5" d="M659.85,845s34.57-21,49.07-17.75,51.46,29.6,33.68,35.31-32.17-.28-39,3.86-11.88,11.73-43.74,11.63S659.85,845,659.85,845Z" transform="translate(0 0)"/><path class="cls-5" d="M1006.46,842.84s-40.76-7.19-48.62-13.2-2.79-9.17-.31-19.41c4.84-20,1.76-9.25,10-10.12s1.85-6,1.82-10-1.79-8.26,5.61-7.51,25.15,23.9,40,32.69S1006.46,842.84,1006.46,842.84Z" transform="translate(0 0)"/><path class="cls-10" d="M1389.83,609.51s43.43,180.31-118.75,319.76c-50.63,43.53-271.4-84.72-271.4-84.72s.48-21.52,21.38-30.52c0,0,173.93,26,194.55,27.71,18.29,1.54,55.31-145.45,100.21-194.57C1350.58,609.14,1389.83,609.51,1389.83,609.51Z" transform="translate(0 0)"/><path class="cls-10" d="M1703.85,1787.29s25.64,23,20.63,39.43-28.14,27.3-31.27,47.31-15.63,30.94-26.88,30.94h-53.67s-8.28-14.09,11.73-18.33,27.55-27.77,26.3-49.61,1.88-51,1.88-51l42.52-9.7Z" transform="translate(0 0)"/><path class="cls-10" d="M1390.3,1847.4s4.6,52.46-6.65,57.92l-143.16.14s-.9-16.81,22.24-20.45,63.79-17,70.67-46.7S1390.3,1847.4,1390.3,1847.4Z" transform="translate(0 0)"/><path class="cls-11" d="M1267.68,1105.41s7.6,91.95,16.53,202.48c12.14,150.15,26.74,334.58,28.18,369.52,2.5,60.67,12.51,157.72,12.51,157.72s23.75,23.06,71.29,13.34c0,0,42.36-138.54,54.46-285.12.19-2.4.38-4.82.56-7.24,11.26-149.22,28.76-463.44,28.76-463.44Z" transform="translate(0 0)"/><path class="cls-12" d="M1267.68,1105.41s7.6,91.95,16.53,202.48l166.44,255.46c.19-2.4.38-4.82.56-7.24,11.26-149.22,28.76-463.44,28.76-463.44Z" transform="translate(0 0)"/><path class="cls-11" d="M1302.38,1116.33s136.95,333,227,489.51S1647.57,1806,1647.57,1806s51.59-20,56.28-33.67c0,0-34.44-302.13-94.74-375.78-34.08-41.62-74.1-166.51-76-210.18s-12.19-130.11-12.19-130.11Z" transform="translate(0 0)"/><path class="cls-5" d="M1482.57,603.13s-92.66,44-146.08,27.7a125.63,125.63,0,0,1,36.16-28.5c-1.85-10.56-3.29-19.73-4.11-27.5a250.44,250.44,0,0,1-2.26-28.11L1402,519l33.9-26.51C1433.26,567.05,1482.57,603.13,1482.57,603.13Z" transform="translate(0 0)"/><path class="cls-13" d="M1261.84,1113a8.39,8.39,0,0,0,5.56,2.19c20.12-.41,78.68,10.55,128.18,5.57,41.92-4,78.9-15.94,118.55-33.07,5.35-2.39,17.48-8.77,17.27-14.34-.22-6.39-.82-15.35-1.64-26.93-1.66-22.76-4-55.09-4.74-93.42-1.4-71.94,3.08-88.41,3.08-137.36.37-67.9-10-192.87-65.32-232.77-3.71-2.8-26.73,8.16-48.08,18.33-19.53,9.37-39,10.37-57.52,6.78l-18.49,15.94c-22.42,20.12-47.07,47.82-58,89.69-9,35.48-14.38,99.64-17.27,166.21-2.49,53.2-3.08,98.35-3.08,99.46C1259.38,1053.21,1260.39,1112,1261.84,1113Z" transform="translate(0 0)"/><path class="cls-6" d="M1436.54,521s-23.42,42.05-68,53.81a250.44,250.44,0,0,1-2.26-28.11L1402,519Z" transform="translate(0 0)"/><path class="cls-5" d="M1350,545.51s88.39,14.25,96.69-39.29,25.29-87.75-30.79-99.11-70.25,7.47-77.5,24.68S1327.2,540.42,1350,545.51Z" transform="translate(0 0)"/><path class="cls-14" d="M1478.8,400.7c.8-.9,2.65-1.63,6.77-1.85a16.89,16.89,0,0,0-7.7-2.14c-.86-5.64-3.9-15.63-13.76-18.06,0,0,5.3,2.79,6,8.78-11.42-11.55-35.88-20-103.63-14.69-89.28,6.94-59.86,63.26-48.3,70s40.66-11.69,62.19-10S1406,465,1413.3,469.25s4.43-3.23,14.31-7.63,10.83,11.73,8,22.22,10.73,24.33,10.73,24.33L1460,493.61c13.72-14.56,26.66-76.24,20.42-89.39C1479.9,403.06,1479.36,401.89,1478.8,400.7Z" transform="translate(0 0)"/><path class="cls-10" d="M1525,953c-.56-28.42-.24-60.13,1.85-93.72.12-2.25.24-4.52.34-6.8-8.41-41-21.12-77.4-39.83-78.58C1487.38,773.9,1431.65,860.19,1525,953Z" transform="translate(0 0)"/><path class="cls-5" d="M1598.74,1101.8s-4.64,44.49-9.74,52.91-26.8,35.31-36,40.59,5.65-35.44,3.76-43.36-7.61,14.46-11.68,15-3-19.61-3.17-26.94,19.82-25.43,26.87-41S1598.74,1101.8,1598.74,1101.8Z" transform="translate(0 0)"/><path class="cls-13" d="M1462.73,582.42s55.93,26.09,82.75,66.2c41.59,62.22,89.81,289,90.7,310S1601,1127.82,1601,1127.82s-36.6-2.37-46-20.57c0,0,7.31-152.31,2.67-162.1s-152.56-204.31-135.92-245.82S1462.73,582.42,1462.73,582.42Z" transform="translate(0 0)"/><polygon class="cls-15" points="1110.49 973.77 930.66 931.98 989.16 687.65 1168.99 729.44 1110.49 973.77"/><polygon class="cls-16" points="1105.86 972.69 926.03 930.9 984.53 686.58 1164.36 728.37 1105.86 972.69"/><polygon class="cls-17" points="1097.54 953.07 942.38 917.01 992.85 706.2 1148.02 742.26 1097.54 953.07"/><path class="cls-18" d="M1125.27,770.74a2.85,2.85,0,0,1-.64-.07L1005.33,743a2.73,2.73,0,0,1-2.06-3.28,2.77,2.77,0,0,1,3.32-2l119.31,27.73a2.72,2.72,0,0,1,2.06,3.27A2.76,2.76,0,0,1,1125.27,770.74Z" transform="translate(0 0)"/><path class="cls-18" d="M1120.36,787.33a2.72,2.72,0,0,1-.63-.08l-119.31-27.72a2.72,2.72,0,0,1-2.06-3.27,2.76,2.76,0,0,1,3.32-2L1121,782a2.72,2.72,0,0,1,2.06,3.27A2.77,2.77,0,0,1,1120.36,787.33Z" transform="translate(0 0)"/><path class="cls-18" d="M1115.15,803.91a2.79,2.79,0,0,1-.64-.07L995.2,776.11a2.72,2.72,0,0,1-2.05-3.27,2.75,2.75,0,0,1,3.32-2l119.31,27.72a2.72,2.72,0,0,1-.63,5.37Z" transform="translate(0 0)"/><path class="cls-18" d="M1110.24,820.49a2.85,2.85,0,0,1-.64-.07L990.29,792.7a2.73,2.73,0,0,1-2-3.28,2.76,2.76,0,0,1,3.32-2l119.31,27.72a2.72,2.72,0,0,1-.63,5.37Z" transform="translate(0 0)"/><path class="cls-11" d="M1099.52,738.6l-61.62-14.32a3.4,3.4,0,0,1-2.56-4.07l4.85-20.25a3.44,3.44,0,0,1,4.13-2.52L1106,711.76a3.39,3.39,0,0,1,2.55,4.07l-4.85,20.25A3.44,3.44,0,0,1,1099.52,738.6Z" transform="translate(0 0)"/><path class="cls-5" d="M972.26,810.09c2.11-7.27-6-28.2-10.1-30.75s-8.69,8.56-12.6,22.33-1.88,25.8,1.28,26.3S970.32,816.79,972.26,810.09Z" transform="translate(0 0)"/><path class="cls-19" d="M1980,1914.7H32.57a5.17,5.17,0,0,1-5.19-5.11h0a5.17,5.17,0,0,1,5.19-5.11H1980a5.16,5.16,0,0,1,5.19,5.11h0A5.16,5.16,0,0,1,1980,1914.7Z" transform="translate(0 0)"/></svg>