<?xml version="1.0" encoding="utf-8"?>
<!-- Generator: Adobe Illustrator 25.2.3, SVG Export Plug-In . SVG Version: 6.00 Build 0)  -->
<svg xmlns:xlink="http://www.w3.org/1999/xlink" version="1.1" xmlns="http://www.w3.org/2000/svg" x="0px" y="0px"
     viewBox="0 0 750 500" style="enable-background:new 0 0 750 500;" xml:space="preserve">
<style type="text/css">
	.st0{fill:#ECDBC5;}
	.st1{fill:#578C56;}
	.st2{fill:#639C64;}
	.st3{fill:none;stroke:#4B3434;stroke-width:2.1353;stroke-miterlimit:10;}
	.st4{clip-path:url(#XMLID_2_);fill:#578C56;}
	.st5{fill:#FDFBF6;}
	.st6{fill:#DCDDE2;}
	.st7{fill:#58617D;}
	.st8{fill:#8087A1;}
	.st9{fill:#3A435B;}
	.st10{fill:#C0C2CB;}
	.st11{clip-path:url(#XMLID_4_);fill:#578C56;}
	.st12{fill:none;stroke:#FFFFFF;stroke-width:2.0061;stroke-miterlimit:10;}
	.st13{fill:#EDBC2C;}
	.st14{fill:#FFFFF9;}
	.st15{fill:none;stroke:#FFFFFF;stroke-width:1.3602;stroke-linecap:round;stroke-linejoin:round;stroke-miterlimit:10;}
</style>
    <g id="BACKGROUND">
</g>
    <g id="OBJECTS">
	<g>
		<g>
			<path class="st0" d="M626.62,451.41c46.1-50.74,72.49-107.89,34.02-158.96c-33.93-45.04-112.26-21.51-159.88-50.65
				c-58.95-36.07-68.95-100.45-153.59-92.1c-48.98,4.83-75.96,36.12-96.03,85.7c-26.1,64.48-60.99,68.02-101.81,104.35
				c-31.7,28.22-43.91,82.15-24.1,118.95h494.51C622.05,456.31,624.35,453.9,626.62,451.41z"/>
            <ellipse class="st0" cx="158.24" cy="198.37" rx="57.64" ry="55.98"/>
		</g>
        <g>
			<g>
				<g>
					<path class="st1" d="M122.73,318.26c0,41.04,33.13,74.31,74,74.31c40.87,0,74-33.27,74-74.31c0-41.04-33.13-74.31-74-74.31
						C155.86,243.95,122.73,277.22,122.73,318.26z"/>
                    <path class="st2" d="M270.73,318.26c0,13.4-3.53,25.97-9.71,36.82c-5.97,1.56-12.24,2.39-18.7,2.39c-40.87,0-74-33.27-74-74.31
						c0-13.4,3.53-25.97,9.71-36.82c5.97-1.56,12.24-2.39,18.7-2.39C237.6,243.95,270.73,277.22,270.73,318.26z"/>
                    <path class="st2" d="M141.97,381.05c1.71,13.62,15.32,23.12,30.39,21.22c15.07-1.9,25.9-14.47,24.19-28.08
						c-1.71-13.61-15.32-23.11-30.39-21.22C151.09,354.87,140.26,367.44,141.97,381.05z"/>
                    <g>
						<line class="st3" x1="196.73" y1="342.87" x2="196.73" y2="438.68"/>
                        <line class="st3" x1="196.73" y1="412.31" x2="174.52" y2="387.72"/>
                        <line class="st3" x1="196.73" y1="369.72" x2="209.6" y2="355.67"/>
					</g>
				</g>
                <g>
					<defs>
						<path id="XMLID_8_"
                              d="M574.36,460.19h97.49c0,0-6.92-46.73-48.75-46.73C581.28,413.47,574.36,460.19,574.36,460.19z"/>
					</defs>
                    <use xlink:href="#XMLID_8_" style="overflow:visible;fill:#639C64;"/>
                    <clipPath id="XMLID_2_">
						<use xlink:href="#XMLID_8_" style="overflow:visible;"/>
					</clipPath>
                    <path class="st4"
                          d="M598.32,464.76c0,0-4.97-42.46,24.79-57.02l-34.81,5.72l-27.01,31.69l0.44,24.83L598.32,464.76z"/>
				</g>
                <g>
					<g>
						<polygon class="st5"
                                 points="616.92,460.19 430.25,460.19 430.25,304.57 528.35,202.7 616.92,304.57 						"/>
                        <rect x="301.43" y="313.29" class="st6" width="128.82" height="146.91"/>

                        <ellipse transform="matrix(0.1607 -0.987 0.987 0.1607 155.2341 778.1226)" class="st7"
                                 cx="535.15" cy="297.78" rx="11.72" ry="11.72"/>
                        <g>
							<rect x="501.25" y="359.29" class="st6" width="64.75" height="100.9"/>
                            <rect x="512.54" y="371.18" class="st8" width="44.03" height="89.01"/>
						</g>
                        <polygon class="st6"
                                 points="616.92,321.44 528.35,227.55 430.25,337.29 430.25,313.29 528.35,202.7 622.3,302.3 						"/>
                        <g>
							<polygon class="st8"
                                     points="528.35,188.81 394.91,188.81 294.55,304.57 433.48,304.57 							"/>
                            <polygon class="st7" points="538.2,199.5 528.35,188.81 430.25,299.5 289.33,299.5 289.33,320.48 430.25,320.48 
								528.53,210.33 616.92,309.39 616.92,321.44 627.67,321.44 627.67,300.45 							"/>
                            <rect x="427.24" y="163.96" class="st7" width="24.58" height="24.85"/>
                            <rect x="451.82" y="163.96" class="st9" width="10.71" height="24.85"/>
						</g>
					</g>
                    <g>
						<polygon class="st6"
                                 points="224.33,460.19 320.43,460.19 320.43,380.07 269.93,327.63 224.33,380.07 						"/>

                        <rect x="320.43" y="384.56"
                              transform="matrix(-1 -1.224647e-16 1.224647e-16 -1 707.1823 844.7562)" class="st5"
                              width="66.32" height="75.63"/>
                        <g>
							<polygon class="st8"
                                     points="269.93,320.48 338.62,320.48 390.29,380.07 318.77,380.07 							"/>
                            <polygon class="st7" points="320.43,377.46 269.93,320.48 264.86,325.98 218.8,377.96 218.8,388.76 224.33,388.76 
								224.33,382.56 269.83,331.56 320.43,388.27 392.98,388.27 392.98,377.46 							"/>
						</g>
					</g>
                    <g>
						
							<rect x="457.17" y="359.88"
                                  transform="matrix(-1 -1.224647e-16 1.224647e-16 -1 936.3827 756.2751)" class="st6"
                                  width="22.03" height="36.51"/>

                        <rect x="472.29" y="359.88"
                              transform="matrix(-1 -1.224647e-16 1.224647e-16 -1 951.4979 756.2751)" class="st10"
                              width="6.92" height="36.51"/>

                        <rect x="457.17" y="389.75"
                              transform="matrix(-1 -1.224647e-16 1.224647e-16 -1 936.3827 786.1456)" class="st10"
                              width="22.03" height="6.64"/>
					</g>
                    <g>
						<rect x="256.24" y="382.01" class="st5" width="22.03" height="36.51"/>
                        <rect x="256.24" y="382.01" class="st10" width="6.92" height="36.51"/>
                        <rect x="256.24" y="411.88" class="st10" width="22.03" height="6.64"/>
					</g>
                    <g>
						
							<rect x="580.07" y="359.88"
                                  transform="matrix(-1 -1.224647e-16 1.224647e-16 -1 1182.1685 756.2751)" class="st6"
                                  width="22.03" height="36.51"/>

                        <rect x="595.18" y="359.88"
                              transform="matrix(-1 -1.224647e-16 1.224647e-16 -1 1197.2836 756.2751)" class="st10"
                              width="6.92" height="36.51"/>

                        <rect x="580.07" y="389.75"
                              transform="matrix(-1 -1.224647e-16 1.224647e-16 -1 1182.1685 786.1456)" class="st10"
                              width="22.03" height="6.64"/>
					</g>
				</g>
                <g>
					<defs>
						<path id="XMLID_3_"
                              d="M177.93,460.19h78.72c0,0-5.59-37.73-39.36-37.73C183.52,422.46,177.93,460.19,177.93,460.19z"/>
					</defs>
                    <use xlink:href="#XMLID_3_" style="overflow:visible;fill:#639C64;"/>
                    <clipPath id="XMLID_4_">
						<use xlink:href="#XMLID_3_" style="overflow:visible;"/>
					</clipPath>
                    <path class="st11"
                          d="M197.28,463.88c0,0-4.01-34.29,20.01-46.04l-28.1,4.62l-21.81,25.59l0.35,20.05L197.28,463.88z"/>
				</g>
			</g>
            <line class="st12" x1="-3.25" y1="459.65" x2="703.66" y2="459.65"/>
		</g>
        <g>
			<g>
				<g>
					<circle class="st13" cx="663.67" cy="157.86" r="36.59"/>
                    <path class="st14" d="M652.33,162.51h-77.16c0,0,2.85-11.37,15.67-12.32c0,0,5.46-0.95,10.92,5.1s12.58-7.26,30.39-7.26
						C649.96,148.03,652.33,162.51,652.33,162.51z"/>
				</g>
                <path class="st14" d="M28.53,205.86h-57.05c0,0,2.11-8.41,11.59-9.11c0,0,4.04-0.7,8.07,3.77c4.04,4.48,9.3-5.37,22.47-5.37
					S28.53,205.86,28.53,205.86z"/>
                <path class="st14" d="M464.53,98.32H356.21c0,0,4-15.97,22-17.3c0,0,7.67-1.33,15.33,7.17c7.67,8.5,17.66-10.19,42.66-10.19
					C461.19,77.99,464.53,98.32,464.53,98.32z"/>
			</g>
            <g>
				<line class="st15" x1="689.23" y1="307.26" x2="721.48" y2="307.26"/>
                <line class="st15" x1="621.81" y1="78.87" x2="654.51" y2="78.87"/>
                <g>
					<line class="st15" x1="210.81" y1="80.18" x2="258.89" y2="80.29"/>
				</g>
                <path class="st15" d="M676.84,241.95c-0.01,2.66-2.17,4.82-4.83,4.81c-2.66-0.01-4.82-2.17-4.81-4.83
					c0.01-2.66,2.17-4.82,4.83-4.81C674.69,237.12,676.84,239.28,676.84,241.95z"/>
                <path class="st15" d="M3.78,397.23c-0.01,2.66-2.17,4.82-4.83,4.81c-2.66-0.01-4.82-2.17-4.81-4.83
					c0.01-2.66,2.17-4.82,4.83-4.81C1.63,392.4,3.79,394.57,3.78,397.23z"/>
			</g>
            <g>
				<path class="st0" d="M547.9,109.87c-0.01,4.25-3.46,7.69-7.71,7.68c-4.25-0.01-7.69-3.46-7.68-7.71
					c0.01-4.25,3.46-7.69,7.71-7.68C544.47,102.16,547.91,105.62,547.9,109.87z"/>
                <path class="st0" d="M303.77,46.57c-0.01,3.73-3.04,6.75-6.77,6.74c-3.73-0.01-6.75-3.04-6.74-6.77
					c0.01-3.73,3.04-6.75,6.77-6.74C300.76,39.81,303.78,42.84,303.77,46.57z"/>
			</g>
		</g>
	</g>
</g>
</svg>
