<?xml version="1.0" standalone="no"?>
<!DOCTYPE svg PUBLIC "-//W3C//DTD SVG 20010904//EN"
        "http://www.w3.org/TR/2001/REC-SVG-20010904/DTD/svg10.dtd">
<svg version="1.0" xmlns="http://www.w3.org/2000/svg"
     width="532.000000pt" height="532.000000pt" viewBox="0 0 532.000000 532.000000"
     preserveAspectRatio="xMidYMid meet">
    <metadata>
        Created by potrace 1.14, written by Peter Selinger 2001-2017
    </metadata>
    <g transform="translate(0.000000,532.000000) scale(0.100000,-0.100000)"
       fill="#000000" stroke="none">
        <path d="M2469 5316 c-2 -2 -35 -6 -74 -10 -38 -3 -79 -7 -90 -10 -11 -2 -41
-6 -66 -10 -528 -77 -1064 -351 -1459 -746 -410 -410 -694 -984 -756 -1525 -3
-27 -8 -61 -10 -75 -2 -14 -7 -89 -10 -168 l-6 -144 81 51 c45 29 132 84 194
124 62 40 143 93 181 117 80 51 180 116 346 223 182 117 313 201 331 212 9 6
27 17 40 26 26 18 79 52 394 254 110 70 247 159 305 196 110 72 218 141 360
232 47 30 162 104 257 165 l171 110 179 -113 c98 -63 214 -137 258 -165 102
-65 445 -286 465 -300 8 -5 146 -94 305 -196 160 -103 313 -201 340 -219 28
-18 217 -139 420 -270 204 -131 406 -261 450 -290 44 -28 118 -75 164 -104
l84 -53 -7 144 c-7 168 -11 201 -45 401 -21 120 -95 370 -137 464 -8 17 -14
34 -14 38 0 10 -125 264 -159 322 -221 382 -598 757 -975 970 -150 85 -462
220 -546 238 -8 2 -49 13 -90 24 -96 26 -246 57 -330 67 -36 4 -74 9 -85 11
-27 5 -462 13 -466 9z"/>
        <path d="M2495 3913 c-202 -131 -235 -152 -835 -538 -272 -175 -565 -363 -650
-418 -221 -143 -451 -291 -550 -354 -292 -187 -426 -276 -431 -286 -7 -13 20
-190 41 -267 7 -25 14 -54 16 -64 2 -11 17 -63 34 -117 181 -584 566 -1093
1085 -1435 356 -234 781 -383 1200 -422 156 -14 537 -6 630 13 11 3 37 7 57
10 21 2 81 14 135 26 614 133 1164 485 1554 994 57 73 166 241 206 315 16 30
35 64 41 75 111 193 261 679 267 864 0 11 -394 275 -558 373 -21 13 -146 93
-277 178 -132 85 -251 162 -264 170 -26 16 -196 125 -381 246 -172 111 -1139
730 -1150 736 -5 3 -82 -42 -170 -99z"/>
    </g>
</svg>
